<svg xmlns="http://www.w3.org/2000/svg" width="100" height="50" viewBox="0 0 100 50"><g transform="matrix(.527 0 0 .527 -99.961 -26.544)" fill="#3f3f3f" fill-rule="evenodd"><path d="M193.246 54.373v49.831h9.994V82.667h1.126l16.219 26.289 2.393-16.188-8.899-15.028 17.314-23.649h-13.514l-13.091 20.833h-1.548V54.231zM222.044 113.543l7.66-50.02h10.698l8.587 27.59.99-.265 9.427-27.184h10.417l4.728 35.662-10.135 2.252-1.349-16.659-1.548.141-7.577 19.357-8.727 2.111-7.203-21.469-1.689.141-2.874 25.245zM300.499 88.719l1.692-11.049s-6.072-5.674-14.731-4.579c-4.33.547-7.952 2.765-10.115 4.831-1.655 1.58-2.824 4.028-2.824 4.028l1.874 17.015 1.243-.211s-.871-8.907 6.168-12.417c6.208-3.097 10.767-1.028 12.649.191 2.204 1.427 3.24 2.793 3.24 2.793zM271.335 115.879l9.345-5.999s1.022 2.474 4.561 4.046c2.768 1.23 6.057 1.171 8.729.035 1.431-.608 2.776-1.486 2.776-1.486l-1.622 12.628s-5.809 1.475-11.371.037c-3.146-.813-6.682-2.64-9.275-5.338-1.969-2.048-3.143-3.923-3.143-3.923zM282.591 99.416s-71.575 19.065-74.959 23.245c-3.384 4.181-2.843 8.851-1.506 13.004 1.337 4.153 4.716 7.32 9.572 5.701 4.856-1.619 26.223-12.947 43.426-22.171 10.641-5.705 25.479-14.886 25.479-14.886z"/><ellipse ry="8.859" rx="8.461" cy="98.773" cx="290.645"/><path d="M296.444 93.331s60.118-33.937 68.816-33.986c5.379-.031 8.45 6.359 9.053 10.68 1.398 10.018-8.116 11.567-12.917 13.345-5.448 2.018-30.838 7.796-35.135 8.784-5.829 1.341-27.859 5.816-27.859 5.816z"/></g><g transform="matrix(.527 0 0 .527 -100.167 -26.982)" fill="#717171" fill-rule="evenodd"><path d="M193.246 54.373v49.831h9.994V82.667h1.126l16.219 26.289 2.393-16.188-8.899-15.028 17.314-23.649h-13.514l-13.091 20.833h-1.548V54.231zM222.044 113.543l7.66-50.02h10.698l8.587 27.59.99-.265 9.427-27.184h10.417l4.728 35.662-10.135 2.252-1.349-16.659-1.548.141-7.577 19.357-8.727 2.111-7.203-21.469-1.689.141-2.874 25.245zM300.499 88.719l1.692-11.049s-6.072-5.674-14.731-4.579c-4.33.547-7.952 2.765-10.115 4.831-1.655 1.58-2.824 4.028-2.824 4.028l1.874 17.015 1.243-.211s-.871-8.907 6.168-12.417c6.208-3.097 10.767-1.028 12.649.191 2.204 1.427 3.24 2.793 3.24 2.793zM271.335 115.879l9.345-5.999s1.022 2.474 4.561 4.046c2.768 1.23 6.057 1.171 8.729.035 1.431-.608 2.776-1.486 2.776-1.486l-1.622 12.628s-5.809 1.475-11.371.037c-3.146-.813-6.682-2.64-9.275-5.338-1.969-2.048-3.143-3.923-3.143-3.923zM282.591 99.416s-71.575 19.065-74.959 23.245c-3.384 4.181-2.843 8.851-1.506 13.004 1.337 4.153 4.716 7.32 9.572 5.701 4.856-1.619 26.223-12.947 43.426-22.171 10.641-5.705 25.479-14.886 25.479-14.886z"/><ellipse ry="8.859" rx="8.461" cy="98.773" cx="290.645"/><path d="M296.444 93.331s60.118-33.937 68.816-33.986c5.379-.031 8.45 6.359 9.053 10.68 1.398 10.018-8.116 11.567-12.917 13.345-5.448 2.018-30.838 7.796-35.135 8.784-5.829 1.341-27.859 5.816-27.859 5.816z"/></g></svg>