<svg xmlns="http://www.w3.org/2000/svg" xmlns:xlink="http://www.w3.org/1999/xlink" viewBox="0 0 2560 765" height="765" width="2560"><defs><linearGradient id="a"><stop offset="0" stop-color="#fff" stop-opacity=".744"/><stop offset="1" stop-color="#fff" stop-opacity="0"/></linearGradient><radialGradient xlink:href="#a" id="b" cx="1263.82" cy="245.449" fx="1263.82" fy="245.449" r="293.034" gradientUnits="userSpaceOnUse" gradientTransform="matrix(1.448 0 0 1.098 -566.005 -24.093)"/></defs><g fill="#fff" fill-opacity=".726"><path d="M340.794 495.667c-3.645-.026-6.743 2.278-9.001 4.944l-24.128 24.13c-2.598-2.697-4.889-5.723-7.661-8.235-1.967-1.204-4.388-.885-6.603-1.101-4.381-.094-8.578 1.544-12.379 3.617 6.063-6.134 12.281-12.138 18.25-18.351 1.265-1.894-1.25-4.38-3.128-3.112-13.375 13.148-26.557 26.525-39.858 39.76-1.19 1.129-3.286 2.7-2.142 4.57.964 1.717 3.454 1.229 4.338-.326l17.134-17.135c-2.595 4.632-4.25 9.967-3.434 15.252-.142 2.13.778 4.235 2.571 5.443l6.572 5.956c-8.944 9.024-18.052 17.896-26.898 27.01-3.423 4.179-2.681 10.854 1.435 14.298 2.904 2.611 5.308 5.934 8.571 8.043 4.268 2.528 10.115 1.349 13.233-2.467l26.335-26.335c13.928 12.619 27.853 25.24 41.781 37.861-2.537 2.758-5.559 5.121-7.805 8.117-1.528 2.641.01 5.735 2.245 7.397 1.937 2.748 6.318 3.13 8.45.4l12.232-12.232c1.649 2.114 4.418 3.923 7.138 2.706 2.531-1.445 5.369-4.102 4.696-7.335-.271-1.819-1.771-3-2.983-4.222 4.394-4.492 8.995-8.802 13.264-13.404 1.817-2.535.55-5.943-1.794-7.641-1.79-2.544-5.708-3.438-8.067-1.156-2.37 2.35-4.722 4.719-7.085 7.076a750227.117 750227.117 0 0 1-37.862-41.78c9.299-9.377 18.76-18.606 27.961-28.073 3.413-4.176 2.695-10.86-1.435-14.299-2.863-2.576-5.199-5.792-8.414-7.948a10.405 10.405 0 0 0-5.531-1.429zm.256 1.207c3.305-.098 6.174 1.959 8.204 4.397 2.427 2.855 6.016 4.956 7.361 8.604 1.408 3.729-.043 8.08-3.108 10.534-8.883 8.949-17.919 17.786-26.707 26.805.132 1.331 1.829 2.067 2.485 3.187l18.726 20.665c-1.835 1.99-4.042 3.75-5.672 5.867.072 1.204 1.556.443 1.804-.285l4.683-4.683 3.261 3.599c-4.684 4.754-9.531 9.392-14.115 14.217-.192 1.06 1.634 1.01 1.896.253l13.29-13.29a9775.3 9775.3 0 0 1 4.322 4.769c-1.284 1.508-3.12 2.706-4.123 4.375.174 1.161 1.546.312 1.813-.351 1.098-.811 2.224-2.779 3.305-2.926 2.248 2.481 4.497 4.961 6.744 7.443l-18.577 18.577c-14.161-12.79-28.25-25.682-42.454-38.409-1.292.025-1.891 1.808-2.927 2.436-8.71 8.638-17.283 17.423-26.073 25.974-3.717 3.041-9.66 2.361-12.695-1.33-2.496-2.779-5.607-5.048-7.742-8.132-2.394-3.82-1.327-9.161 2.156-11.958 8.605-8.678 17.381-17.236 25.881-25.989-.118-1.278-1.889-1.792-2.576-2.79l-3.832-3.472c6.673-6.74 13.502-13.367 20.079-20.177.196-1.105-1.371-.863-1.597-.018l-19.382 19.382c-2.171-1.293-2.789-4.581-.889-6.364 6.816-6.736 13.485-13.641 20.389-20.277 1.934-1.365 4.676-.442 5.851 1.497 2.254 2.362 4.31 4.994 6.675 7.206 1.318-.23 1.972-1.933 3.059-2.654 8.313-8.235 16.479-16.63 24.877-24.773a9.176 9.176 0 0 1 5.609-1.908zm-43.703 1.577c1.194.018 1.345 1.723.335 2.199-13.717 13.662-27.336 27.447-41.114 41.032-1.166.623-2.16-1.23-1.03-1.902 13.782-13.725 27.465-27.576 41.308-41.224.155-.076.33-.113.501-.105zm-4.233 19.095l-19.963 19.963c-.18-7.546 4.015-15.049 10.762-18.534 3.106-1.699 6.663-2.404 10.182-2.41l-.981.981zm83.498 64.455c2.437-.003 3.904 2.322 5.409 3.892 1.383 1.953.4 4.632-1.451 5.9-11.209 11.165-22.335 22.422-33.594 33.531-1.843 1.444-4.587.689-5.868-1.15-1.643-1.241-3.149-3.354-2.287-5.488 1.085-2.322 3.514-3.68 5.105-5.628 10.13-10.087 20.179-20.265 30.359-30.296a3.919 3.919 0 0 1 2.327-.762zm-7.331 23.556c1.724 1.237 3.029 3.568 1.973 5.64-.965 1.524-2.302 3.045-4.032 3.684-2.209.741-4.181-.967-5.459-2.567l7.137-7.138.19.19.19.19z"/><path d="M301.556 536.1c-5.284-.032-9.716 5.239-8.773 10.463.556 4.46 4.79 6.894 7.517 10.03 5.458 5.353 10.721 10.922 16.292 16.15 4.119 3.221 10.74 1.872 13.251-2.694 2.342-3.76 1.29-9.069-2.168-11.842-6.784-6.712-13.432-13.572-20.296-20.197a9.054 9.054 0 0 0-5.823-1.91zm.235 1.209c3.08-.112 5.611 1.998 7.486 4.216 6.305 6.374 12.752 12.618 18.975 19.067 2.846 3.48 1.832 9.218-2.041 11.506-3.252 2.149-7.92 1.33-10.366-1.67l-17.18-17.18c2.175-2.293 4.628-4.403 6.648-6.799.084-1.062-1.382-.751-1.605.042l-5.9 5.9c-2.315-1.882-4.227-4.669-3.893-7.781.234-4.029 3.836-7.371 7.875-7.301zM267.465 581.463c-3.931-.005-6.12 5.319-3.348 8.09 2.492 3.072 8.027 1.366 8.391-2.553.491-2.92-2.067-5.774-5.043-5.538zm.247 1.205c2.788-.137 4.68 3.401 3.029 5.648-1.405 2.351-5.306 2.048-6.332-.491-1.134-2.327.705-5.217 3.303-5.156zM342.565 506.363c-3.933-.005-6.13 5.324-3.344 8.095 2.49 3.056 8.028 1.372 8.387-2.557.496-2.929-2.072-5.766-5.043-5.537zm.248 1.205c2.789-.137 4.68 3.402 3.028 5.649-1.437 2.409-5.456 2.01-6.394-.633-1.01-2.316.833-5.075 3.366-5.016zM344.111 616.09c-2.917-.011-4.197 4.227-1.752 5.83 2.249 1.859 5.931-.601 5.054-3.395-.345-1.464-1.801-2.541-3.303-2.435zm.192 1.208c2.029-.095 2.76 2.99.904 3.816-1.741 1.031-3.828-1.326-2.6-2.93a2.015 2.015 0 0 1 1.697-.886zM375.847 584.355c-2.918-.013-4.197 4.225-1.756 5.827 2.304 1.919 6.031-.711 5.021-3.521-.396-1.403-1.807-2.407-3.265-2.306zm.192 1.207c2.029-.095 2.76 2.99.904 3.816-1.746 1.034-3.837-1.337-2.594-2.94a2.02 2.02 0 0 1 1.691-.877z"/></g><path d="M2113.321 160.505c-1.113.784.013 2.694-1.121 3.602-1.719 1.187-3.949.047-5.849.091-20.064-1.35-40.122-3.296-60.183-4.576-.429.821.812.936 1.324.802l65.051 5.144-.781 9.877c-3.265.006-5.28 3.583-4.839 6.564l-.478 6.039c-10.219-1.569-21.021 5.947-22.647 16.254-1.829 8.756-3.495 17.584-5.179 26.34-.834 4.505 1.47 8.864 4.037 12.311.502 1.518-1.378 2.038-2.47 2.221-3.718 1.759-4.173 6.232-5.439 9.657l-4.827 14.383c-1.471.6-3.165-.786-4.446.189.377 1.085 2.014.376 2.905.621 2.134.105 4.42.789 6.439.246-.163-1.162-1.511-.087-2.208-.588-1.485-.535-1.637-2.455-.829-3.632 2.344-6.03 3.797-12.416 6.498-18.296 1.95-2.717 5.672-2.699 8.629-2.133 14.674 1.27 29.409 2.072 44.041 3.676 3.182 1.059 4.308 4.674 4.421 7.709l2.973 17.734c-1.388.324-2.946-.81-4.17.062.344 1.079 1.989.503 2.878.665 2.131.011 4.431.848 6.456.248-.138-1.15-1.605-.299-2.352-.635-1.496-.089-2.711-1.388-2.526-2.917-.913-6.389-1.94-12.781-3.211-19.113-.658-2.964-3.557-4.554-6.25-5.32 5.038-3.278 8.353-9.335 7.412-15.385-.622-9.259-.218-18.589-1.378-27.798-1.874-8.579-9.892-15.25-18.619-15.761-1.274-.663-.391-2.331-.521-3.429.27-2.884 1.297-6.633-1.303-8.782-.678-.883-2.634-.639-2.111-2.054l.703-8.887c22.152 1.655 44.335 3.692 66.467 5.112.344-1.12-1.329-.693-1.889-.817l-64.347-5.088c-.56-1.411.784-3.175-.244-4.339l-.014.004zm-1.114 15.833c2.778.203 4.141 3.497 3.338 5.913l-.511 6.463-7.871-.622c.894-3.413-.269-7.349 1.7-10.45.825-.934 2.103-1.441 3.344-1.303zm2.869 13.128c5.303.31 10.71 2.121 14.353 6.151 1.557 1.591 2.798 3.455 3.906 5.376l-46.03-3.64c4.388-6.28 12.449-9.797 20.028-8.403 2.579.206 5.164.319 7.744.515zm-27.059 8.754l45.477 3.596c2.357 6.274 1.241 13.11 1.844 19.594.188 5.174.522 10.371.448 15.563-1.764 1.634-4.186.17-6.246.405l-21.72-1.717c.545-9.286 1.808-18.676 1.951-27.89-1.16-.047-.448 1.586-.739 2.216l-2.025 25.61-27.94-2.209c1.425-9.625 3.688-19.125 5.432-28.657.592-2.18.958-4.784 2.721-6.341.247-.121.523-.185.798-.169zm-6.876 36.097c18.099 1.531 36.213 2.879 54.318 4.339-1.762 4.08-4.89 8.449-9.669 8.926-4.54.42-9.025-.694-13.555-.798-8.33-.746-16.733-.981-25.002-2.242-4.021-1.314-6.936-5.314-7.458-9.403.176-.571.797-.879 1.366-.823z" fill="#fff" fill-opacity=".726"/><g fill="#fff" fill-opacity=".726"><path d="M483.693 447.151c-9.682-1.24-19.407-2.653-29.064-3.77-.43.666.521.987 1.026.796 18.943 2.558 37.895 5.062 56.841 7.597l-.906 6.797c-2.289.217-4.659-1.135-6.827-.475-1.085 1.918-1.643 4.094-2.546 6.095-.403 1.487-1.583 2.883-3.237 2.827-13.366 3.747-23.269 15.721-26.897 28.81-3.03 10.289-2.952 22.181 3.267 31.278 1.399 2.04 3.092 3.857 4.887 5.55-5.337 1.607-11.72 1.026-15.89 5.288-3.014 3.079-4.512 7.208-6.886 10.737-.563 1.478-1.932 3.181-3.715 2.528-1.894-.116-3.91-1.036-5.735-.506.115 1.069 1.563.431 2.249.743 1.986.274 3.978.774 5.936.662 1.507-1.772 2.256-4.072 3.664-5.902 2.153-3.877 4.286-8.442 8.708-10.15 3.403-1.401 7.163-1.425 10.697-2.334 1.39-.37 2.91-.056 3.903 1.016 9.694 6.308 21.953 8.073 33.123 5.889a34.534 34.534 0 0 0 5.786-1.834c4.311 2.548 9.651 3.728 13.167 7.515 3.207 3.855 3.492 9.102 4.949 13.707.402 1.171.609 2.589 1.319 3.556 2.335.65 4.818.445 7.158 1.104.778.297 1.231-.734.321-.864-1.917-.057-3.771-.53-5.687-.655-1.115-.069-1.9-.823-1.975-1.953-1.503-4.783-2.046-9.994-4.677-14.34-2.95-4.283-8.263-5.601-12.598-7.945-2.13-.525.426-1.05 1.156-1.637 8.911-5.078 14.015-15.088 15.104-24.964 2.011-14.476-2.825-30.578-14.541-39.816a32.735 32.735 0 0 0-5.478-3.477c-.602-3.058-.463-6.305-1.377-9.267-1.629-.689-3.498-.283-5.165-.718-1.312-.572-1.422-2.213-.968-3.388-.063-1.314.003-3.224 1.669-3.478 1.916-.249 3.78.625 5.701.618 17.036 2.204 34.081 4.725 51.118 6.685.418-1.15-1.45-.635-2.016-.908-28.523-3.789-57.04-7.628-85.564-11.415zm21.999 11.508l12.725 1.697 1.024 8.193a31.895 31.895 0 0 0-17.279-2.305l3.135-7.638.255.034.139.019zm5.167 8.284c11.592 1.451 21.245 10.337 25.53 20.939 5.13 12.22 4.914 26.848-1.458 38.571-4.448 7.679-12.666 12.933-21.463 13.902-9.383 1.303-19.189-.411-27.588-4.776-7.593-4.201-13.292-11.893-14.447-20.568-1.788-11.154 1.334-22.803 7.511-32.15 6.101-9.03 16.191-15.929 27.328-16.162a29.295 29.295 0 0 1 4.586.244zM506.026 442.334c-2.552-.251-5.226-.82-7.707-.837-.274 1.106 1.303.582 1.85.818 9.798 1.219 19.678 2.915 29.438 3.726.221-1.185-1.704-.491-2.314-.863-7.092-.928-14.174-1.926-21.268-2.845z"/><path d="M496.908 513.999c-3.592-.679-7.44.081-10.292 2.433-2.208 1.749-4.074 4.406-4.209 7.241 1.047.276.68-1.227 1.086-1.794 1.962-5.382 8.307-8.549 13.806-7.016 6.136.954 12.405 1.253 18.437 2.777 4.569 1.733 7.446 6.679 7.26 11.447 1.049.305.65-1.096.667-1.696-.38-6.051-5.743-11.25-11.811-11.364-4.972-.752-9.971-1.273-14.944-2.028zM509.939 473.847c-1.046.584-.448 2.166-.81 3.16l-4.038 30.272c-8.941-1.032-17.897-2.665-26.821-3.365-.183 1.123 1.489.558 2.063.846 17.398 2.238 34.803 4.835 52.201 6.819.36-1.048-1.247-.711-1.772-.868l-24.904-3.322c1.366-11.154 3.194-22.291 4.293-33.45-.057-.048-.135-.111-.214-.092z"/></g><g fill="#fff" fill-opacity=".726"><path d="M509.934 169.649c-48.386.124-96.788-.076-145.164.105-.572.647.566 1.381 1.133.88 2.819.02 5.639-.004 8.458.007l15.834 20.327-15.808 20.293c-3.24.38-6.719-.545-9.805.389.298 1.349 2.157.268 3.021.6h45.529l-3.07 25.739h-8.391c-1.016-2.031.611-4.53-.687-6.362-1.267.566-.205 2.393-.493 3.425.083 3.374-.432 7.005.285 10.233 1.296-.183.496-1.879.592-2.732-.349-1.636.432-3.949 2.472-3.701 2.314-.058 4.701.495 6.928-.119.859-1.987.298-4.264.922-6.33l2.43-20.36c2.444.742 5.807-.855 7.596 1.621 6.905 8.696 21.18 9.805 29.366 2.277 1.337-1.148 2.511-2.474 3.561-3.887 1.94.84 4.849-.943 6.228 1.303 1.334 7.106 1.651 14.451 2.771 21.615.414 1.232-.007 3.125.962 3.94 1.758.263 3.556-.179 5.329-.044 1.748-.268 4.172.717 3.808 2.845-.024 1.084-.83 2.967.399 3.557 1.043-.927.138-2.727.359-3.968-.133-3.185.524-6.627-.29-9.659-1.353.319-.416 2.132-.553 3.108.349 1.709-.91 3.873-2.889 3.24-1.876-.311-4.708 1.005-5.821-1.19-.84-2.504-.551-5.276-1.09-7.867l-1.989-16.679c16.154-.155 32.424.288 48.504-.222.112-1.445-1.902-.489-2.657-.737-2.374-.17-5.067.332-7.253-.235-3.52-4.184-6.488-8.942-10.297-12.796-1.12.844.838 1.785 1.094 2.545l8.169 10.486h-30.46l31.645-40.622c3.244-.367 6.719.517 9.796-.36.026-.266-.146-.711-.475-.664zm-102.38.991h60.203l15.835 20.327-15.835 20.327H455.22c5.856-9.005 3.226-22.31-5.73-28.293-8.464-6.141-21.492-4.528-28.023 3.712-5.183 6.216-6.332 15.398-2.77 22.608.12 2.022-2.34 2.339-3.814 1.986-2.813-.592-6.336 1.186-8.569-1.249-2.953-3.489-5.492-7.33-8.5-10.784-.298-.649-1.466-1.558-1.382-.303 1.842 2.53 4.022 5.045 5.931 7.614l3.669 4.709h-30.46l31.671-40.655h.311zm-30.678.001h29.156l-15.23 19.55-15.23-19.55h1.304zm93.397 0h29.156l-15.23 19.55-15.23-19.55h1.304zm-32.722 9.548c10.802-.271 20.52 9.758 19.896 20.553-.212 9.945-8.806 18.99-18.833 19.292-9.342.567-18.642-6.168-20.547-15.425-2.039-8.704 2.406-18.568 10.612-22.35a19.999 19.999 0 0 1 8.871-2.071z"/><path d="M436.824 188.79c-7.276.192-12.837 8.618-9.941 15.364 2.36 6.321 10.741 9.468 16.478 5.677 5.404-3.228 7.333-11.227 3.351-16.288-2.238-3.109-6.044-5.005-9.889-4.754zm.601.952c6.872-.346 12.463 7.505 9.86 13.887-2.006 5.916-9.896 8.867-15.181 5.372-5.241-3.095-6.739-11.1-2.477-15.626 1.93-2.237 4.833-3.632 7.798-3.634z"/></g><g fill="#fff" fill-opacity=".726"><path d="M1660.761 419.438c-6.324-1.217-10.565 5.828-11.216 11.216-.285 2.786.078 5.85 1.956 8.022 1.705 1.837 4.68 2.272 6.797.928 3.968-2.017 6.158-6.467 6.747-10.718.492-3.505-.497-8.172-4.284-9.448zm-.133 1.089c2.845 1.125 3.815 4.552 3.576 7.355-.269 4.636-2.639 9.51-7.012 11.521-2.442.965-5.528-.441-6.258-3.001-1.654-4.199-.205-9 2.278-12.555 1.654-2.241 4.502-4.302 7.416-3.321zM1650.056 448.833c-1.29 3.816-2.737 7.583-4.038 11.398.812.76 1.005-.089 1.199-.824 1.175-3.421 2.556-6.919 3.593-10.294-.209-.024-.583-.367-.754-.279z"/><path d="M1671.343 389.591c-3.035-.797-5.935 1.514-7.299 4.074-1.03 1.125-2.547.195-3.658-.247-3.53-1.19-7.018-2.5-10.539-3.715-.76.812.087 1.006.824 1.2l17.749 6.318-3.488 9.798c-3.37-1.113-5.351-4.687-8.863-5.444-2.389-.028-3.784 2.352-4.731 4.213-.63.978-.774 2.333-1.676 3.097l-33.743 10.14-3.863 10.853 32.333-2.081c-1.862 7.959-3.44 15.987-4.255 24.125l-13.71 1.264-2.822 7.926 16.236 1.068c.437 2.632.479 5.921 2.895 7.599 2.137.845 4.195-.83 5.739-2.129.648-.566 1.254-1.177 1.871-1.776l13.422 9.535 2.822-7.927-9.947-9.779c4.485-6.818 8.277-14.054 11.801-21.406l23.879 22.136 3.864-10.855-20.258-29.79c.649-2.742 1.917-5.865.426-8.555-1.621-1.909-4.349-1.338-6.556-1.427-1.363-.042-2.72-.196-4.067-.403l3.52-9.888c6.351 2.254 12.693 4.533 19.05 6.769.76-.812-.092-1.003-.825-1.198l-12.821-4.564c.798-2.868.525-6.441-2.047-8.33a4.474 4.474 0 0 0-1.263-.602zm.232 1.013c2.431 1.156 3.053 4.318 2.486 6.723-.636 1.084-2.004.379-2.816-.057-2.304-.745-4.568-1.602-6.854-2.399 1.247-2.24 3.359-4.638 6.158-4.48.349.028.697.095 1.027.212zm3.422 18.512c1.787.972 1.649 3.363 1.242 5.064-1.842 8.406-5.748 16.154-9.412 23.877-4.867 9.723-10.293 19.277-17.304 27.632-1.46 1.553-3.153 3.356-5.394 3.56-1.712-.071-2.808-1.738-2.983-3.307-1.052-4.432-.348-9.026-.089-13.507 1.335-13.724 4.344-27.276 8.684-40.356 1.028-2.823 2.036-5.76 3.887-8.163 1.056-1.221 3.008-1.603 4.305-.522 3.287 1.973 6.355 4.963 10.389 5.066 2.223.185 4.517-.01 6.675.657zm1.015 10.15l19.182 28.419-3.3 9.271-23.077-21.446c2.543-5.503 4.937-11.065 6.785-16.852l.41.609zm-26.654-8.764c-1.87 5.407-3.393 10.901-4.741 16.464l-31.31 2.023 3.304-9.281 32.967-9.863-.219.656zm-9.368 42.432c-.142 2.74-.286 5.484-.214 8.229l-14.928-.924 2.263-6.36 12.9-1.366-.021.42zm16.87 5.828l8.783 8.854-2.324 6.529-12.111-8.686c1.835-2.291 3.399-4.795 5.379-6.97l.271.274z"/></g><g fill="#fff" fill-opacity=".726"><path d="M2015.58 553.963c-1.226-.111.011 2.011.378.687.04-.252-.041-.708-.378-.687z"/><path d="M2106.064 406.631c-1.178.833.791 1.863 1.246 2.416l20.388 20.388c-2.926 3.349-2.928 8.769-.001 12.118l-6.985 6.986c-3.934-3.655-10.635-2.562-13.723 1.675-6.738 6.591-13.034 14.734-22.53 17.364-11.953 3.799-25.792-.335-33.967-9.782-3.979-3.674-7.189-8.434-12.076-10.971-3.07-1.112-6.655-.388-9.151 1.687l-6.96-6.96c2.921-3.348 2.926-8.759.007-12.111 7.248-7.56 15.152-14.611 22.034-22.442-1.047-1.064-2.061 1.104-2.783 1.635-6.287 6.51-12.856 12.781-19.194 19.216-1.752 1.255-3.065-1.21-4.807-1.202-5.413-1.284-11.479 3.245-11.097 8.966.029 2.159.865 4.257 2.205 5.936-7.22 7.573-15.247 14.62-22.003 22.476 1.12 1.038 1.802-1.209 2.632-1.588l20.136-20.136c3.35 2.926 8.767 2.922 12.118.001l6.968 6.968c-3.861 4.361-1.991 11.429 2.519 14.558 6.473 6.481 14.222 12.803 16.641 22.062 3.625 11.868-.532 25.498-9.868 33.596-3.715 4.058-8.73 7.334-10.966 12.411-.961 2.985-.331 6.414 1.654 8.847l-6.95 6.949c-3.347-2.925-8.758-2.922-12.109-.006-7.564-7.241-14.629-15.184-22.447-22.029-1.125 1.081 1.169 1.85 1.553 2.653l20.165 20.165c-4.679 4.735-1.569 13.967 5.025 14.895 2.741.544 5.658-.29 7.811-2.044 7.577 7.223 14.618 15.246 22.476 22.002 1.039-1.12-1.206-1.802-1.587-2.632-6.712-6.711-13.423-13.423-20.136-20.133 2.93-3.351 2.922-8.767.001-12.12l6.987-6.985c3.932 3.638 10.64 2.565 13.725-1.676 6.667-6.506 12.857-14.545 22.192-17.257 12.02-3.971 26.047.133 34.293 9.672 4.014 3.686 7.229 8.506 12.18 11.009 3.05 1.065 6.582.329 9.054-1.723l6.96 6.96c-2.92 3.349-2.925 8.758-.007 12.111-7.242 7.563-15.167 14.616-22.03 22.448 1.083 1.121 1.85-1.167 2.653-1.553l20.166-20.165c4.822 4.752 14.239 1.447 14.949-5.312.439-2.664-.416-5.44-2.094-7.528 7.219-7.573 15.247-14.62 22-22.475-1.12-1.035-1.799 1.208-2.63 1.587l-20.136 20.136c-3.35-2.926-8.767-2.924-12.118 0l-6.968-6.968c3.74-4.235 2.131-11.192-2.271-14.313-6.535-6.581-14.438-12.925-16.89-22.308-3.625-11.869.533-25.497 9.868-33.596 3.709-4.07 8.683-7.261 10.965-12.408.962-2.986.328-6.415-1.652-8.852 2.317-2.315 4.633-4.632 6.949-6.948 3.347 2.925 8.757 2.925 12.109.008 7.577 7.219 14.624 15.255 22.485 22.009 1.038-1.121-1.211-1.802-1.59-2.633l-20.163-20.162c4.595-4.71 1.655-13.832-4.876-14.866-2.785-.603-5.772.225-7.966 2.013-7.532-7.266-14.622-15.082-22.384-22.04zm-90.364 20.887c6.021-.192 10.098 7.793 6.362 12.549-3.034 4.683-11.051 4.395-13.568-.671-2.832-4.756.86-11.889 6.533-11.858l.672-.02zm119.013 0c6.021-.192 10.098 7.793 6.362 12.549-3.034 4.683-11.051 4.395-13.568-.671-2.832-4.756.86-11.889 6.533-11.858l.672-.02zm-20.056 19.823c4.872-.117 9.147 5.032 7.645 9.764-1.334 4.705-5.907 7.283-8.983 10.753-6.18 5.745-11.664 12.85-12.855 21.431-.298 1.701-.443 3.424-.546 5.146-5.613.345-11.46-.494-16.915.376.2 1.591 2.38.324 3.35.72h13.602c-.033 10.282 5.531 19.771 13.155 26.404 3.233 3.531 7.917 6.358 9.304 11.205 1.026 4.716-2.979 9.903-7.934 9.534-5.276-.311-8.147-5.494-11.681-8.674-5.606-5.927-12.121-11.665-20.386-13.196-2.248-.514-4.548-.767-6.849-.883-.343-5.6.494-11.542-.374-16.918-1.592.195-.324 2.381-.721 3.349v13.604c-10.256-.045-19.717 5.494-26.348 13.112-3.493 3.166-6.237 7.596-10.778 9.368-5.125 1.447-10.992-3.453-9.79-8.836.887-4.952 5.687-7.642 8.79-11.131 6.117-5.688 11.734-12.602 13.075-21.102.375-1.923.553-3.837.665-5.802 5.604-.351 11.454.507 16.913-.38-.223-1.586-2.394-.35-3.348-.715h-13.602c.041-10.288-5.555-19.797-13.155-26.404-3.232-3.536-7.931-6.365-9.308-11.22-1.027-4.744 3.043-9.943 8.024-9.498 5.034.255 7.778 5.201 11.135 8.226 5.641 5.874 12.079 11.832 20.212 13.475 2.434.605 4.956.909 7.483 1.03.349 5.61-.5 11.464.377 16.913 1.596-.188.318-2.377.719-3.344v-13.6c9.999-.011 19.365-5.193 25.852-12.64 3.577-3.232 6.39-7.59 10.842-9.706a7.645 7.645 0 0 1 2.431-.36zm-98.958 99.19c6.021-.192 10.098 7.793 6.362 12.549-3.034 4.683-11.051 4.395-13.568-.671-2.832-4.756.86-11.889 6.533-11.858l.672-.02zm119.013 0c6.021-.192 10.098 7.793 6.362 12.549-3.034 4.683-11.051 4.395-13.568-.671-2.832-4.756.86-11.889 6.533-11.858l.672-.02z"/><path d="M2134.468 553.977c-1.198.179.503 2.013.537.448a.453.453 0 0 0-.537-.448zM2134.498 434.953c-1.191.095.347 1.974.523.576-.002-.278-.214-.605-.523-.576zM2015.455 434.964c-1.226.232.568 2.002.533.41a.448.448 0 0 0-.533-.41z"/></g><g fill="#fff" fill-opacity=".726"><path d="M679.284 496.214c-2.886.044-4.946 3.264-4.05 5.947-5.954.19-12.057-.307-17.902.242.104 1.122 1.663.235 2.329.512h13.541c-.508 3.218-.115 7.368 3.079 9.078 2.999 1.745 7.267.463 8.798-2.635 1.64-1.166 3.72-.161 5.544-.515h8.249c1.536 3.753 1.892 8.665 5.839 10.784 3.317 1.769 7.211.936 10.781.99 1.66-.456 3.723 1.021 3.105 2.845-.277 1.512.681 3.75-1.077 4.638-3.077.839-3.839 5.267-1.532 7.316 2.451 2.448 7.3.477 7.267-3.002.127-2.25-1.715-4.379-3.957-4.6v-7.061c4.637-.536 9.578.978 13.919-1.156 3.234-1.872 4.232-5.71 5.119-9.07.372-1.327 1.704-2.076 3.06-1.684h11.195c1.515 4.37 8.17 5.345 10.833 1.552 1.497-1.855 1.32-4.408 1.504-6.577 1.321-1.772 3.69-.521 5.475-.918 3.352-.135 6.913.348 10.126-.224-.139-1.107-1.658-.228-2.333-.503h-15.597c1.133-3.027-1.822-6.622-5.021-5.866-2.535.504-4.095 3.47-3.308 5.852-5.953.191-12.055-.307-17.899.243.104 1.122 1.663.235 2.329.512h13.97c-1.418 1.389.491 3.705-1.194 4.939-2.773.55-5.772.141-8.631.23-19.186.043-38.373.006-57.56.019 1.181-1.497-.589-3.92 1.294-5.052 3.826-.384 7.756.001 11.623-.123 1.069-.083 2.444.191 3.296-.329-.374-1.053-1.818-.108-2.591-.424h-15.339c.98-2.783-1.314-6.059-4.286-5.96zm.33.772c2.465.064 4.095 2.976 3.19 5.188h-6.812c-.888-2.386.926-5.433 3.622-5.188zm79.04 0c2.465.064 4.095 2.976 3.19 5.188h-6.812c-.888-2.386.926-5.433 3.622-5.188zm-84.325 5.929h10.565c.358 2.876.298 6.604-2.498 8.29-3.355 2.371-8.749-.468-8.543-4.617-.048-1.224.064-2.451-.046-3.673h.522zm79.04 0h10.565c.358 2.876.298 6.604-2.498 8.29-3.355 2.371-8.749-.468-8.543-4.617-.048-1.224.064-2.451-.046-3.673h.522zm-51.787 5.906c12.22.051 24.439.008 36.659.023-1.485 3.324-1.708 7.755-5.085 9.906-3.635 2.182-8.052.836-11.989 1.188-4.901-.135-9.877.418-14.731-.346-3.089-.982-4.957-4.062-5.501-7.109-.632-1.162-1.5-3.582.646-3.662zm17.286 19.775c3.075-.273 4.909 4.197 2.556 6.173-2.036 2.236-6.392.358-6.086-2.686.032-1.845 1.674-3.497 3.529-3.487zM710.471 540.191c-.734.494.251 1.148.667 1.438 4.635 3.979 12.486 3.652 16.533-.992-.212-1.021-1.045.363-1.53.498-3.132 2.498-7.547 3.321-11.286 1.762-1.618-.614-3.079-1.607-4.384-2.706zM704.84 545.805c-.709.598.546 1.267.91 1.617 7.169 6.428 19.013 6.51 26.242.11.393-.36 1.557-1.12 1.059-1.687-.953-.045-1.276 1.233-2.102 1.593-7.252 5.88-18.864 5.437-25.45-1.276-.195-.14-.408-.358-.66-.357z"/><path d="M699.278 551.379c-.76.586.48 1.237.852 1.616 9.02 8.395 23.827 9.607 34.019 2.736 1.726-1.143 3.563-2.413 4.689-4.102-.632-.673-1.301.824-1.888 1.038-9.168 8.421-24.326 9.07-34.206 1.499-1.198-.869-2.262-1.959-3.465-2.787z"/></g><g fill="#fff" fill-opacity=".726"><path d="M614.635 271.754l-.002.001a1.66 1.66 0 1 0 1.263 3.074 1.66 1.66 0 1 0-1.26-3.074z"/><path d="M593.325 212.849c-2.035.961-2.171 3.914-.932 5.574l19.714 48.112c-4.549 1.909-5.772 8.745-2.068 12.049.75 1.261-.605 2.424-1.175 3.449-.7.877-1.958 1.017-2.918.541-4.624-.578-9.191-1.756-13.822-1.889-2.605.83-2.718 4.008-3.612 6.146-4.092 12.023-8.478 23.963-12.341 36.054-.144 2.693 3.784 4.542 5.55 2.274 1.722-1.962 2.714-4.438 4.317-6.494l25.181-39.107c4.087 2.878 10.631.156 11.331-4.834.304-.717-.053-2.158.435-2.436 1.379.508 3.648-.034 4.187 1.804 1.298 4.763 2.51 9.588 4.231 14.198 1.619 2.11 4.561 1.07 6.772.885 12.793-1.417 25.649-2.476 38.391-4.166 2.404-1.011 2.478-5.152-.199-5.885-2.524-.871-5.262-.626-7.847-1.237l-45.996-6.234c-.845-4.345-6.017-7.001-10.071-5.293.262-1.643-1.888-3.082-.774-4.697 3.421-3.846 7.392-7.233 10.484-11.346.784-2.507-1.605-4.399-2.838-6.273-7.57-10.295-14.853-20.823-22.643-30.938a3.31 3.31 0 0 0-3.358-.255zm.621.462c1.933-.709 3.405 1.239 4.227 2.705 7.76 10.833 15.802 21.48 23.375 32.438.626 2.125-1.583 3.452-2.777 4.804-2.632 2.806-5.321 5.557-7.97 8.347-6.144-15.258-12.655-30.391-18.578-45.725-.067-1.115.666-2.207 1.722-2.569zm18.735 53.718c3.935-1.815 9.081 1.256 9.306 5.6.637 4.418-4.074 8.533-8.372 7.259-4.045-.943-6.508-6.052-4.361-9.715a6.833 6.833 0 0 1 3.426-3.144zm-20.787 14.466c2.467-.64 4.913.642 7.383.711l8.591 1.333c-8.975 13.778-17.676 27.749-26.814 41.41-1.712 1.581-4.91-.48-4.099-2.692 4.69-13.324 9.075-26.78 13.993-40.019.252-.315.574-.579.946-.741zm36.231-8.414c16.064 2.264 32.19 4.189 48.214 6.667 2.191.917 1.558 4.766-.841 4.864-14.045 1.356-28.074 3.151-42.128 4.233-2.08-.578-2.099-3.128-2.684-4.746l-3.238-11.11.676.092z"/></g><g fill="#fff" fill-opacity=".726"><path d="M735.865 321.552c-8.586 2.773-15.516 10.429-17.325 19.482-1.84 8.569.68 17.743 6.719 23.993.765.831 1.573 1.619 2.362 2.426-6.407-1.302-13.301.694-17.995 5.379-.881.84.199-1.533.206-2.234 2.239-10.52-2.388-22.168-11.441-27.842-7.946-5.208-18.716-5.52-26.847-.61-8.738 5.163-14.1 15.685-12.755 25.957 1.107 9.908 8.23 19.019 17.776 21.981 8.726 2.909 18.924.692 25.594-5.827.958-.886 1.853-1.838 2.763-2.775-1.284 6.526.683 13.57 5.279 18.346.856.889-1.342-.143-1.986-.166-10.215-2.346-21.584 2.17-27.291 11.223-5.909 8.989-5.697 21.626.774 30.237 5.811 8.008 16.27 12.303 25.901 10.171 9.217-1.845 17.23-9.202 19.734-18.457 2.589-8.96.242-18.992-6.158-25.664-.798-.877-1.648-1.703-2.476-2.55 6.436 1.309 13.336-.72 17.994-5.379.865-.865-.137 1.363-.159 2.013-2.32 10.436 2.17 22.073 11.065 27.854 8.247 5.617 19.973 5.819 28.291.12 8.643-5.685 13.472-16.826 11.35-27.144-1.798-9.738-9.344-18.099-18.854-20.5-8.539-2.329-18.14.142-24.48 6.469-.866.815-1.68 1.683-2.507 2.537 1.289-6.537-.696-13.585-5.277-18.345-.849-.881 1.337.14 1.976.162 10.241 2.364 21.662-2.211 27.336-11.275 5.512-8.404 5.711-20.352.118-28.827-5.591-8.816-16.523-13.729-26.644-11.564a25.171 25.171 0 0 0-3.041.807zm.232.646c10.85-3.761 23.849 1.302 29.474 11.475 5.276 9.048 4.367 21.398-2.4 29.404-6.092 7.499-16.553 11.053-25.794 8.363-1.775-.475-3.489-1.163-5.138-1.981 3.324-6.338 6.646-12.678 9.969-19.016 1.772.683 3.906.026 5.008-1.544 4.325 2.171 8.459 4.904 12.872 6.784.498-.89-1.062-.937-1.447-1.367l-11.129-6.057c1.505-3.087-2.161-6.96-5.227-5.374-.848.197-1.412 1.314-2.099 1.381-4.245-2.143-8.31-4.821-12.647-6.667-.498.89 1.062.937 1.447 1.367l11.096 6.039c-.669 1.808-.025 3.989 1.523 5.11l-9.961 19.001c-10.104-5.451-15.441-18.533-12.014-29.665 2.306-8.011 8.615-14.762 16.467-17.252zm-59.002 18.263c11.072-3.701 24.267 1.796 29.589 12.37 3.644 6.99 4.14 15.885.533 22.974-1.335 1.143-2.767-.427-3.92-1.042-5.081-2.596-10.038-5.45-15.07-8.131.669-1.806.03-3.983-1.515-5.106 2.116-4.415 4.862-8.643 6.639-13.137-.883-.438-.882 1.099-1.322 1.495l-5.944 11.34c-3.029-1.537-6.818 2.198-5.277 5.316.217.863 1.256 1.456 1.359 2.15-2.092 4.331-4.777 8.491-6.524 12.908.883.438.882-1.1 1.322-1.496l5.927-11.307c1.774.681 3.914.026 5.013-1.552l18.649 10.15c-5.332 10.256-18.086 15.691-28.989 12.286-9.846-2.821-17.563-12.207-18.196-22.667-.799-10.025 4.66-20.319 13.555-24.811a25.241 25.241 0 0 1 4.173-1.741zm6.391 21.319c2.637-1.079 5.447 2.43 3.911 4.849-1.198 2.588-5.58 2.072-6.104-.768-.457-1.666.556-3.588 2.192-4.081zm59.318-18.353c2.637-1.079 5.447 2.43 3.911 4.849-1.197 2.587-5.574 2.072-6.103-.765-.459-1.667.554-3.591 2.191-4.084zm-24.986 25.203c8.692-2.999 19.12 2.198 22.132 11.034 2.989 7.956-.312 17.835-7.628 22.063-6.736 4.121-16.112 3.127-21.667-2.619-5.529-5.458-7.108-14.703-3.303-21.602 2.189-4.185 6.005-7.483 10.466-8.875zm36.526 13.943c10.945-3.689 23.984 1.595 29.457 11.935 4.977 8.917 4.077 20.867-2.415 28.761-6.153 7.78-16.969 11.436-26.41 8.515-9.077-2.601-16.478-10.686-17.954-20.239-.941-5.493-.102-11.294 2.419-16.248l18.651 10.151c-.668 1.805-.028 3.981 1.515 5.103-2.121 4.415-4.863 8.657-6.638 13.137.883.438.882-1.1 1.322-1.496l5.944-11.34c3.023 1.532 6.82-2.197 5.277-5.316-.217-.863-1.256-1.456-1.358-2.149 2.106-4.322 4.731-8.485 6.545-12.884-.872-.517-.924 1.079-1.343 1.471l-5.927 11.307c-1.774-.682-3.915-.026-5.014 1.552-6.219-3.385-12.438-6.771-18.658-10.155 3.131-5.721 8.428-10.182 14.586-12.106zm-58.925 18.234c6.144-1.866 12.962-1.152 18.66 1.817l-9.966 19.011c-1.772-.681-3.907-.028-5.009 1.545-4.329-2.163-8.5-4.957-12.893-6.766-.412.976 1.251.934 1.671 1.458l10.925 5.947c-1.502 3.084 2.156 6.95 5.218 5.378.847-.221 1.429-1.28 2.11-1.384 4.247 2.146 8.309 4.819 12.648 6.668.493-.892-1.063-.938-1.449-1.368l-11.094-6.038c.668-1.81.02-3.987-1.524-5.111l9.959-19c10.077 5.436 15.407 18.453 12.049 29.569-2.781 10.039-12.02 17.89-22.292 18.515-10.008.809-20.267-5-24.555-14.314-4.232-8.724-3.128-19.889 3.03-27.394 3.198-4.045 7.607-7.092 12.512-8.532zm6.079 21.416c2.637-1.078 5.447 2.429 3.912 4.848-1.197 2.589-5.58 2.074-6.104-.767-.457-1.666.556-3.588 2.192-4.081zm59.318-18.353c2.637-1.079 5.447 2.43 3.911 4.849-1.198 2.588-5.58 2.072-6.104-.768-.457-1.667.556-3.588 2.192-4.081z"/><path d="M719.592 375.133c-6.276 1.899-9.663 10.07-6.594 15.976 2.632 5.623 10.109 8.241 15.478 5.102 4.88-2.647 7.432-9.187 5.153-14.429-.725-1.825-1.927-3.903-3.721-4.606-.379.804.872 1.018 1.16 1.63 3.916 4.308 3.462 11.889-1.105 15.548-4.219 3.655-11.251 3.198-14.813-1.2-3.656-4.203-3.41-11.348.815-15.068 2.134-2.045 5.163-2.869 7.97-3.013.057-.957-1.203-.438-1.713-.492-.894.077-1.779.263-2.63.552z"/></g><g fill="#fff" fill-opacity=".726"><path d="M1838.926 401.715c-13.627-.102-26.387 10.987-28.081 24.572-1.718 11.516 4.204 23.894 14.602 29.264.819.61 1.223-.479.435-.83-8.558-4.323-14.008-13.78-14.432-23.266-.622-11.324 6.664-22.314 17.035-26.682 10.061-4.489 22.526-1.89 30.302 5.803 7.886 7.394 10.405 19.585 6.566 29.62-2.152 6.157-6.755 11.196-12.311 14.503-.588.209-1.197 1.003-.224 1.063 6.718-3.345 11.865-10.001 14.027-17.23 3.533-10.996-.724-23.632-9.798-30.634-5.095-4.132-11.588-6.325-18.12-6.183z"/><path d="M1839.162 413.619c-9.715-.24-18.257 9.501-16.512 19.145.676 4.571 3.25 9.348 7.435 11.44.674-.983-1.001-1.268-1.44-1.895-6.254-5.437-7.085-15.954-1.527-22.178 5.098-6.13 15.012-7.54 21.44-2.683 6.35 4.473 8.717 13.869 4.71 20.643-1.208 2.278-3.297 4.065-4.964 5.839.893.925 1.722-.796 2.482-1.168 6.544-5.932 7.192-17.244.954-23.639-3.184-3.465-7.851-5.595-12.578-5.504z"/><path d="M1838.788 425.529c-4.084.192-6.079 6.339-2.591 8.716.705.808 2.261.796 2.679 1.535-.095 4.113.515 8.493-1.496 12.283-8.73 25.784-17.848 51.506-26.324 77.333.958.674 1.143-.944 1.297-1.505l3.245-9.474 23.235 13.466c.252 4.053-.382 8.238.27 12.214 1.284-.013.447-1.805.642-2.502v-9.7l23.204-13.449c1.641 3.605 2.202 7.851 4.209 11.156 1.163-.629-.4-1.997-.362-2.855-8.996-26.433-18.212-52.806-27.051-79.282v-8.08c4.21-.14 6.128-6.461 2.575-8.814-.993-.794-2.276-1.115-3.532-1.042zm.466.885c3.561-.308 5.508 4.978 2.673 7.098-2.489 2.415-7.315-.153-6.623-3.573.219-1.932 2.001-3.536 3.95-3.525zm-.402 23.681v25.671l-7.757-6.596 7.757-22.651v3.576zm2.052-.192l6.599 19.268-7.757 6.596v-29.246l1.159 3.382zm-9.455 20.742c2.41 2.296 5.342 4.051 7.403 6.702v23.989l-15.187-10.469 7.118-20.789.666.566zm16.648.26c2.278 6.654 4.558 13.308 6.835 19.962l-15.187 10.469V476.94l8.069-6.861.283.827zm-24.086 21.284l14.841 10.23v24.443l-22.957-13.306 7.47-21.814.647.446zm31.476.298c2.405 7.023 4.811 14.046 7.215 21.07l-22.957 13.306V502.42l15.488-10.676.255.743z"/></g><path d="M1716.835 255.099c-5.658 3.074-11.52 5.937-17.059 9.129.634 1.052 2.242.564 3.202 1.19l20.732 5.985c-2.521 7.897-5.324 15.708-7.694 23.645 5.721 10.879 11.357 21.862 17.282 32.597.984-.542.71-2.262 1.304-3.148l6.766-20.508c8.23 2.37 16.478 4.755 24.697 7.114 1.474 1.219 1.638 3.36 2.808 4.824 6.625 12.369 12.974 24.985 19.785 37.193.864-.596-.656-1.49-.676-2.19l-21.486-40.717c10.849-5.836 21.93-11.365 32.639-17.38-.727-.95-2.44-.66-3.457-1.244l-20.462-5.907c2.541-7.864 5.268-15.68 7.705-23.57-5.676-10.932-11.382-21.916-17.293-32.68-1.043.673-.731 2.427-1.389 3.423l-6.679 20.244c-7.989-2.231-15.906-4.721-23.934-6.813a2821.996 2821.996 0 0 0-16.79 8.815zm-14.786 8.448l31.666-16.71c8.288 4.349 14.026 12.92 15.301 22.141.447.995-.125 2.307-1.338 2.183-2.522.628-4.62 2.563-5.585 4.959l-41.285-11.917 1.241-.655zm64.206-31.943l16.252 30.797c-2.294 2.616-4.137 5.642-6.909 7.822-5.103 4.41-11.61 7.019-18.268 7.868-.171-3.046-2.272-5.852-5.165-6.839l13.468-40.826.621 1.177zm-27.006 16.8l18.131 5.234-5.739 17.398c-1.425.404-2.287-1.056-2.112-2.298-1.08-8.15-5.778-15.659-12.309-20.65-1.522-.998 1.773.374 2.029.317zm-14.469 23.308c5.896 1.665 11.896 3.511 17.728 5.061 1.251-4.771 7.854-7.025 11.644-3.767 1.775 1.332 2.622 3.739 2.596 5.778 8.569-1.036 16.836-4.787 22.527-11.378.993-.663 1.394.826.898 1.499-1.88 5.524-3.661 11.082-5.506 16.618-6.07-1.713-12.247-3.613-18.25-5.21-1.255 4.765-7.841 7.026-11.644 3.766-1.78-1.329-2.617-3.747-2.602-5.777-8.599 1.029-16.951 4.881-22.605 11.443-.999.585-1.302-.86-.835-1.514 1.899-5.537 3.668-11.12 5.525-16.671l.272.078.251.072zm4.349 11.181c3.861-2.074 8.133-3.302 12.463-3.903.173 3.047 2.273 5.854 5.166 6.841l-13.468 40.826a484145.96 484145.96 0 0 0-16.727-31.698c3.016-5.041 7.356-9.32 12.564-12.067zm28.165-1.796c13.608 3.928 27.216 7.855 40.823 11.784l-32.908 17.366c-8.619-4.527-14.528-13.649-15.411-23.29.328-1.444 2.278-.855 3.189-1.706 1.743-.911 3.102-2.474 3.844-4.287l.272.078.191.055zm-9.545 4.965c1.712-.107 1.619 1.937 1.745 3.088 1.333 7.903 5.885 14.982 12.212 19.849.832.846-2.738-.687-3.66-.79l-16.501-4.763 5.75-17.431.282.029.171.018z" fill="#fff" fill-opacity=".726"/><g fill="#fff" fill-opacity=".726"><path d="M342.868 302.429c-7.367-1.216-14.769 5.032-15.563 12.204 1.043.353 1.117-1.843 1.496-2.575 2.017-5.778 8.222-9.737 14.307-8.838.297-.213.177-.823-.24-.791z"/><path d="M358.508 294.978c-9.545-1.868-19.917-3.108-29.135 1.099-4.109 2.33-6.973 6.297-9.103 10.417-3.254-1.075-8.123-2.377-10.18 1.342-2.024 3.372 1.239 7.919 5.032 7.635 2.737.826.741 3.99.752 5.819-1.556 8.958-.821 19.287 5.864 26.116 7.04 8.209 19.643 10.248 29.168 5.417 12.406-5.356 23.356-13.942 32.099-24.186 1.663-2.176 3.004-4.578 4.136-7.067.517 1.696 2.877 1.463 2.416-.352.288-2.226.891-5.608 3.782-5.654 4.468-.437 9.791.477 12.695 4.177 1.212 2.233-1.423 4.705-.544 6.717 1.491.046 2.611 1.47 2.095 2.909.969 11.326 6.54 21.627 12.238 31.224 5.171 8.479 12.45 17.212 22.89 18.684 10.951 1.559 22.385-4.969 26.466-15.303 1.947-4.12 3.207-8.415 4.258-12.846 3.259 1.871 8.775 1.292 9.503-3.067.676-3.718-3.127-6.478-6.546-6.204-2.404-.387-2.315-3.205-2.383-5.042-.781-6.511-5.019-12.243-10.835-15.182-10.027-6.168-21.849-8.226-33.372-9.519-20.033-4.681-40.23-8.749-60.154-13.842a81.757 81.757 0 0 0-11.142-3.294zm.314.944c9.48 2.42 19.437 5.533 26.507 12.638 3.982 5.217 1.808 12.589-1.626 17.502-6.09 8.911-15.017 15.426-23.958 21.231-7.979 5.121-18.05 9.43-27.536 6.079-9.95-3.406-16.981-13.812-16.086-24.355.177-10.582 2.857-21.867 10.323-29.733 5.779-5.408 14.268-5.35 21.67-4.989 3.604.264 7.179.843 10.705 1.627zm85.299 19.264c9.244 2.264 18.94 5.555 25.46 12.834 5.362 7.626 4.352 17.761 2.136 26.308-2.155 8.506-6.251 17.503-14.546 21.55-8.26 4.444-19.173 3.449-26.164-2.955-8.409-7.366-13.618-17.587-18.225-27.591-3.036-7.236-5.818-15.493-3.503-23.324 1.182-4.183 4.822-7.531 9.216-7.936 8.482-1.736 17.241-.606 25.626 1.112zm-61.062-12.778c13.732 3.172 27.495 6.216 41.239 9.342-5.628 1.066-12.691 2.205-15.208 8.185-1.748 1.581-2.558-1.475-3.578-2.273-3.97-2.634-9.118-3.958-13.674-2.6-1.59.607-4.192 3.464-3.402.073.081-4.759-3.209-8.692-6.953-11.207-.928-1.154.548-1.975 1.575-1.52zm94.691 40.347c2.858.344 5.47 3.331 4.008 6.201-1.329 2.834-5.936 3.18-7.833.885-.37-2.033.665-4.039.335-6.114.183-2.083 2.205-1.099 3.489-.972zm-160.611-36.268c2.077.201 2.781 2.735 1.404 4.183-.73 1.445-.833 4.747-3.316 4.12-2.231-.253-4.587-1.64-4.848-4.103-.517-3.164 3.078-5.379 5.885-4.371.295.038.585.1.874.17z"/><path d="M455.522 327.875c-.953.427.272 1.338.928 1.216 6.197 2.394 8.92 9.86 7.561 16.025.361 1.649 1.219-1.022 1.124-1.615.561-5.812-1.969-12.156-7.446-14.777-.696-.344-1.418-.648-2.168-.848z"/></g><g fill="#fff" fill-opacity=".726"><path d="M1900.697 205.781c-.664 1.113.775 2.268.979 3.392l7.282 17.26c-2.722 1.475-3.418 5.487-1.334 7.784-3.762 2.38-9.164 2.54-11.55 6.754-.727 1.809-.845 4.165-2.823 5.147-8.066 7.271-16.551 14.091-24.286 21.705-3.63 4.759-3.471 11.628-.292 16.536 10.523 21.673 20.693 43.533 31.455 65.079 2.877 3.987 8.841 4.741 12.914 2.206 28.908-12.273 57.935-24.28 86.762-36.737 4.273-2.596 5.441-8.671 3.046-12.927-8.432-22.825-16.548-45.773-25.197-68.514-2.841-5.469-9.515-8.186-15.45-7.014l-30.111 2.34c-2.608-2.761-7.091-2.41-10.104-.518l-5.729 2.417c-.155-3.129-3.521-5.522-6.521-4.586-3.036-6.739-5.509-13.857-8.856-20.366-.061.001-.138-.007-.185.041zm9.214 21.23c2.604-1.012 5.518 1.304 5.663 3.97l-7.226 3.049c-1.846-2.168-1.376-6.072 1.562-7.019zm-9.416 11.152c8.204-3.171 16.181-6.946 24.396-10.098 3.359-1.633 7.275.876 8.421 4.147 1.583 4.987 4.506 9.543 5.661 14.658-.292 3.21-3.583 4.728-5.276 7.132l-8.73 9.309c-6.757-.32-13.584.095-20.299-.66-2.939-1.344-3.061-5.026-4.452-7.54-1.396-3.739-3.817-7.265-4.087-11.335.155-2.541 2.076-4.68 4.366-5.614zm33.265-8.663c11.137-.69 22.267-2.068 33.429-2.33 5.634.663 10.166 5.408 11.377 10.827 8.162 22.524 16.595 44.957 24.573 67.543.897 4.431-2.403 8.959-6.693 10.007l-10.72 4.523c-3.097-6.731-5.398-13.846-8.958-20.336-3.034-3.889-8.945-4.461-13.003-1.883-14.993 6.46-30.209 12.444-45.045 19.243-4.067 2.87-4.949 8.888-2.348 13.021l6.897 16.346c-5.175 1.768-9.925 4.853-15.337 5.862-4.173.219-7.838-3.043-8.99-6.911-10.407-21.824-21.096-43.52-31.308-65.434-1.833-5.555.784-11.905 5.545-15.115l22.012-19.347c2.64 5.546 4.379 11.547 7.494 16.831 2.811 2.475 6.764 1.157 10.131 1.551 4.157.067 8.372.316 12.486.128 4.376-4.293 8.363-8.965 12.672-13.325 1.453-1.485 2.316-3.601 1.525-5.642-1.053-3.168-2.792-6.061-3.866-9.227l-2.647-6.273.774-.058zm-12.635 87.168c15.303-6.179 30.371-12.963 45.705-19.077 4.495-1.876 9.88 1.49 11.032 6.034l7.079 16.777-60.928 25.708c-2.62-6.879-6.147-13.437-8.262-20.494-.482-3.752 1.946-7.5 5.375-8.948z"/><path d="M1892.015 272.417c-8.317 3.465-12.024 14.671-7.422 22.422 3.885 7.076 13.408 10.371 20.743 6.804 7.119-3.214 11.285-12.138 8.577-19.631-2.326-7.16-10.077-12.176-17.581-10.861-1.488.22-2.949.639-4.317 1.267zm.712.597c7.723-3.541 17.85 1.001 20.35 9.125 2.615 7.438-1.554 16.551-9.072 19.147-7.023 2.688-15.822-.609-19.01-7.499-3.262-6.518-1.175-15.295 5.032-19.289a15.783 15.783 0 0 1 2.7-1.484zM1953.7 246.389c-8.317 3.465-12.024 14.671-7.422 22.422 3.885 7.077 13.408 10.371 20.743 6.804 7.119-3.214 11.285-12.138 8.577-19.631-2.326-7.16-10.077-12.176-17.581-10.861-1.488.22-2.949.639-4.317 1.267zm.712.597c7.723-3.541 17.85 1.001 20.35 9.125 2.615 7.438-1.554 16.551-9.072 19.147-7.023 2.688-15.822-.609-19.01-7.499-3.262-6.518-1.175-15.295 5.032-19.289a15.783 15.783 0 0 1 2.7-1.484z"/><path d="M1895.853 280.461c-4.845 1.791-5.857 9.265-1.576 12.22 3.607 2.87 9.826 1.207 11.087-3.362.573-1.68.745-4.122-.635-5.301-.866.669.382 1.596.21 2.466.431 4.231-4.21 8.1-8.279 6.527-4.181-1.262-5.821-7.339-2.551-10.367.635-.743 2.204-1.023 2.272-2.012-.117-.149-.343-.275-.528-.172zM1957.538 254.434c-4.845 1.791-5.857 9.265-1.576 12.22 3.607 2.87 9.826 1.207 11.087-3.362.573-1.68.745-4.122-.635-5.301-.866.669.382 1.596.21 2.466.431 4.231-4.21 8.1-8.279 6.527-4.181-1.262-5.821-7.339-2.551-10.367.635-.743 2.204-1.023 2.272-2.012-.117-.149-.343-.275-.528-.172zM1927.636 269.481c-3.832 1.351-4.004 7.43-.244 8.98 3.279 1.602 7.66-1.384 6.969-5.089-.412-2.972-3.896-5.266-6.725-3.891zm.213.82c3.08-1.634 6.951 2.212 5.37 5.301-1.138 3.22-6.494 3.179-7.512-.123-.777-1.934.206-4.374 2.141-5.179zM1971.866 311.382c-2.629.888-1.625 5.465 1.167 5.124 2.395-.05 3.617-3.77 1.309-4.931-.73-.449-1.688-.556-2.476-.193zm.458.716c1.945-.905 3.346 2.429 1.481 3.339-1.591.952-3.466-1.199-2.375-2.661.214-.319.541-.538.894-.677zM1933.525 283.965c-3.145 1.288-3.524 5.693-1.643 8.159 1.53 3.026 1.916 7.105 5.081 8.968 2.976 1.406 7.154-.93 6.911-4.34-.175-3.335-2.481-6.032-3.273-9.214-1.039-2.863-4.057-5.053-7.077-3.572zm.681.617c2.493-.984 5.046 1.116 5.714 3.442 1.154 1.474-.203 3.618-1.939 3.713-1.421.724-3.446 2.186-4.922.678-1.764-1.938-2.274-5.555.083-7.263.321-.248.69-.419 1.064-.569zm.998 9.256c1.994-.81 3.967-1.67 5.954-2.498 1.064 2.299 2.928 5.315 1.117 7.727-1.842 2.787-6.767 1.612-7.255-1.65-.699-1.068-1.485-2.931.185-3.579zM1959.509 306.84c-6.982 3.158-14.118 5.963-21.159 8.987-2.372 1.044-4.964 1.925-7.096 3.245.136 1.772 1.486 3.159 1.92 4.867 1.47 3.3 2.578 6.987 4.452 9.934 1.675-.196 3.012-1.457 4.655-1.84 8.146-3.518 16.455-6.716 24.474-10.485-.023-1.608-1.335-2.863-1.686-4.414-1.605-3.475-2.692-7.376-4.715-10.526-.297-.007-.577.118-.844.232zm-26.869 12.315l27.501-11.604 5.748 13.622-28.015 11.821-5.748-13.622.257-.108.257-.108zM1970.27 307.516a2.11 2.11 0 0 0 1.124-1.14 2.1 2.1 0 0 0-.01-1.601 2.106 2.106 0 0 0-1.14-1.124 2.108 2.108 0 0 0-1.601.009c-.509.215-.918.63-1.126 1.141a2.101 2.101 0 0 0 .012 1.6c.215.509.63.918 1.138 1.125a2.109 2.109 0 0 0 1.603-.01zM1926.63 330.468c-2.629.888-1.625 5.465 1.167 5.124 2.395-.05 3.617-3.77 1.309-4.931-.73-.449-1.688-.556-2.476-.193zm.458.716c1.945-.905 3.346 2.429 1.481 3.339-1.591.952-3.466-1.199-2.375-2.661.214-.319.541-.538.894-.677zM1925.034 326.603a2.11 2.11 0 0 0 1.124-1.14 2.1 2.1 0 0 0-.01-1.601 2.106 2.106 0 0 0-1.14-1.124 2.108 2.108 0 0 0-1.601.009c-.509.215-.918.63-1.126 1.141a2.106 2.106 0 0 0 .012 1.6c.214.506.63.918 1.138 1.125a2.109 2.109 0 0 0 1.603-.01z"/></g><g fill="#fff" fill-opacity=".726"><path d="M952.269 429.08c-11.078-4.208-21.993-8.868-33.094-12.994-2.384-.317-4.337 1.853-4.714 4.05-2.439 6.432-5.344 12.733-7.44 19.262-.098 2.506 2.33 4.033 4.492 4.522l9.084 3.612-2.357 5.927-12.716-5.056c-.986-7.454-8.693-13.214-16.094-12.021-4.874.612-9.069 3.933-11.385 8.201-7.499 11.143-15.352 22.07-22.603 33.365-3.255 6.666-.236 15.616 6.406 18.872 5.977 3.187 14.286 1.443 18.209-4.193 1.752-2.28 3.164-4.804 4.992-7.029 1.548 5.652 8.166 9.44 13.808 7.464 1.84-.573 3.502-1.653 4.829-3.044l10.466 4.161c-.267 6.201 5.664 11.843 11.866 11.022 1.645-.152 3.216-.712 4.724-1.361-.573 4.979-2.432 10.18-.527 15.097 2.457 7.002 10.894 11.21 17.965 8.708 5.635-1.827 9.745-7.252 10.05-13.16 2.078-13.482 4.535-26.908 6.335-40.427.147-7.712-6.799-14.719-14.565-14.384a14.722 14.722 0 0 0-8.629 2.981l-12.712-5.054 2.349-5.907c4.316 1.427 8.342 3.786 12.792 4.691 2.57-.15 3.721-2.753 4.31-4.895 2.345-6.165 5.148-12.209 7.121-18.479.05-1.783-1.317-3.388-2.961-3.932zm-.164.614c2.123.635 3.193 3.416 1.873 5.249-2.685 6.546-5.036 13.257-7.992 19.675-1.402 1.679-3.871 1.078-5.503.111l-25.12-9.988c8.157-3.648 16.555-6.925 24.577-10.76-.309-.96-1.341.198-1.883.25l-23.623 10.183c-2.082-1.278-5.256-1.215-6.492-3.663-.838-2.481 1.213-4.664 1.806-6.947 2.229-5.354 4.045-10.921 6.633-16.102 1.446-1.541 3.79-.907 5.388.015l28.241 11.229c-1.087 1.069-2.926.84-3.858 2.048.449.709 1.475-.221 2.045-.4 1.229-.472 2.53-1.503 3.91-.9zm-55.609 8.23c4.462 1.782 7.741 6.083 8.453 10.813 1.451 1.064 3.348 1.215 4.907 2.095 10.555 4.117 21.047 8.555 31.652 12.446 1.515-.866 2.919-1.964 4.66-2.362 6.117-1.949 13.399 1.042 16.194 6.871 1.825 3.399 1.841 7.44.919 11.106-2.165 13.051-4.039 26.157-6.423 39.167-2.019 6.903-10.086 11.276-16.964 9.091-6.426-1.814-10.939-8.772-9.723-15.388.377-2.809.905-5.622 1.438-8.388.868-1.476 2.53-2.331 3.113-4.011 1.558-2.972 1.407-6.503.563-9.661 3.702 4.211 10.157 5.77 15.28 3.384 5.082-2.33 8.394-8.279 7.012-13.784-.82-.084-.4.969-.347 1.409.586 6.295-4.627 12.47-10.965 12.841-5.9.546-11.849-3.853-12.8-9.755-1.12-5.754 2.536-12.068 8.242-13.663 4.376-1.365 9.442.047 12.52 3.396.664-.158.249-.886-.191-1.046-4.895-4.977-13.917-4.591-18.348.822-3.233 3.712-3.891 9.267-2.042 13.796-.061.338-1.113-.908-1.647-1.24-3.96-3.159-10.508-3.228-14.327.495-2.001 1.831-3.21 4.425-3.55 7.099l-9.963-3.961c4.07-4.841 2.599-13.116-2.966-16.174-2.045-1.219-4.425-1.592-6.763-1.863 4.904-2.254 8.448-7.526 7.865-13.013-.024-.467-.089-1.748-.764-1.036.613 3.267-.315 6.835-2.409 9.459-3.167 4.294-9.351 5.858-14.18 3.601-4.63-1.914-7.72-6.95-7.171-11.953.393-5.007 4.15-9.597 9.108-10.669 4.211-1.016 8.888.45 11.813 3.594.785-.274-.043-.976-.397-1.219-4.858-4.74-13.553-4.363-17.995.795-4.275 4.687-4.338 12.616.19 17.142 2.756 2.95 6.931 4.316 10.949 4.142-4.343 2.232-7.449 7.103-6.564 12.064-.972 1.721-2.375 3.441-3.436 5.215-2.177 3.494-5.254 6.771-9.416 7.711-5.383 1.451-11.571-.64-14.72-5.305-3.369-4.768-3.398-11.727.32-16.318 7.308-10.748 14.621-21.486 22.01-32.178 1.769-2.941 4.647-5.16 7.973-6.028 2.91-.805 6.088-.682 8.892.463zm25.122 10.014l8.783 3.492-2.357 5.927-9.192-3.655 2.357-5.927.204.081.204.081zm-22.441 25.147c5.593 1.858 8.402 9.16 5.55 14.281-2.497 5.095-9.606 7.182-14.405 4.079-4.655-2.749-6.437-9.448-3.481-14.048 2.438-4.054 7.892-6.101 12.335-4.312zm29.415 11.695c5.593 1.858 8.402 9.16 5.55 14.281-2.497 5.095-9.606 7.182-14.405 4.079-4.655-2.75-6.437-9.448-3.481-14.048 2.438-4.054 7.892-6.101 12.335-4.312z"/><path d="M952.406 482.657l-1.634-.65a1.649 1.649 0 1 0-1.219 3.065l1.634.65a1.649 1.649 0 1 0 1.219-3.065zM940.967 478.108l-1.634-.65a1.649 1.649 0 1 0-1.219 3.065l1.634.65a1.649 1.649 0 1 0 1.219-3.065zM948.468 473.521a1.649 1.649 0 0 0-2.142.923l-.65 1.634a1.649 1.649 0 1 0 3.065 1.219l.65-1.634a1.649 1.649 0 0 0-.923-2.142zM943.92 484.96a1.649 1.649 0 0 0-2.142.923l-.65 1.634a1.649 1.649 0 1 0 3.065 1.219l.65-1.634a1.649 1.649 0 0 0-.923-2.142zM896.85 460.568l-1.634-.65a1.649 1.649 0 1 0-1.219 3.065l1.634.65a1.649 1.649 0 1 0 1.219-3.065zM885.411 456.019l-1.634-.65a1.649 1.649 0 1 0-1.219 3.065l1.634.65a1.649 1.649 0 1 0 1.219-3.065zM892.912 451.432a1.649 1.649 0 0 0-2.142.923l-.65 1.634a1.649 1.649 0 1 0 3.065 1.219l.65-1.634a1.649 1.649 0 0 0-.923-2.142zM888.364 462.871a1.649 1.649 0 0 0-2.142.923l-.65 1.634a1.649 1.649 0 1 0 3.065 1.219l.65-1.634a1.649 1.649 0 0 0-.923-2.142zM912.457 468.19c-1.648-.574-3.333-1.437-4.969-1.804-.456.86.955.757 1.362 1.064 6.204 2.409 12.381 5.147 18.636 7.258.489-.87-1.107-.774-1.515-1.137-4.511-1.778-9-3.611-13.514-5.381zM897.105 478.653c-2.989-1.299-6.573 1.881-5.674 5.013.624 2.994 4.763 4.448 7.008 2.226.745-.536 1.838-2.089.666-2.65-1.152-.175-1.031 1.344-1.925 1.718-1.699 1.201-4.348-.113-4.323-2.212-.081-1.98 2.24-3.474 3.999-2.566.897.1 1.163-1.342.249-1.529zM926.511 490.345c-2.933-1.266-6.481 1.786-5.692 4.887.512 3.078 4.829 4.63 7.064 2.324.736-.524 1.818-2.12.602-2.627-1.129-.129-1 1.357-1.89 1.726-1.698 1.201-4.346-.112-4.323-2.21-.088-1.986 2.266-3.498 4.016-2.549.863 0 1.165-1.355.222-1.551z"/></g><path d="M2404.19 87.834c-15.182.229-30.385-.147-45.555.193-.867.239-2.793 1.016-1.338 1.816l24.958 24.958-40.637 40.636 14.947-66.199c-2.302 2.48-1.874 6.15-2.917 9.165l-13.126 58.132c-2.16 2.158-4.319 4.318-6.478 6.477-4.147-3.158-5.727-8.365-8.341-12.621-.698-1.641-2.452-3.9-4.408-2.641-2.583 1.652-4.201 4.408-6.595 6.308-1.34 1.32-3.625 2.874-3.11 5.037 1.144 2.373 4.08 2.836 6.065 4.29 2.924 1.679 6.356 2.923 8.535 5.601.774 1.626-.927 2.949-2.139 3.675-6.86 5.277-15.964 5.711-24.274 5.672-5.785-.018-11.746 1.836-15.826 6.123-6.939 6.855-9.524 16.701-10.922 26.042-.661 4.978-1.221 10.149-.719 15.057 1.172-.088.37-1.643.605-2.37.251-11.948 1.821-24.533 8.604-34.703 3.939-5.668 10.642-9.581 17.654-9.228 8.319-.143 17.277-.275 24.362-5.216 1.502-1.01 2.876-2.199 4.14-3.493 3.94 2.996 5.378 7.959 7.921 11.98.72 1.671 2.248 4.24 4.403 3.173 2.561-1.369 3.999-4.077 6.226-5.878 1.469-1.482 3.901-2.935 3.768-5.283-.787-2.479-3.769-2.928-5.667-4.302-2.962-1.742-6.427-3.003-8.783-5.56-.899-2.2 1.76-3.509 2.901-4.906 1.49-1.8 3.489-3.386 5.931-3.391 20.937-4.819 41.969-9.278 62.84-14.343.586-.26 1.914-1.354.446-.793l-65.457 14.779 40.636-40.637c8.566 8.491 17.143 17.292 25.701 25.59 2.208-2.938.865-6.732 1.186-10.083-.05-13.172.21-26.358-.158-39.52-.739-2.469-.732-.184-.654 1.153v47.763l-25.49-25.49 25.179-25.179c-1.001-1.321-1.991 1.327-2.973 1.802l-22.792 22.792-25.49-25.49h50.195a5.627 5.627 0 0 0-3.356-.891zm-81.755 60.382c2.319.443 2.435 3.247 3.718 4.786l4.087 7.357-5.81 5.811c-3.908-2.384-8.273-4.241-11.925-6.915-.8-1.974 1.437-3.117 2.501-4.33 2.493-2.122 4.419-5.271 7.429-6.709zm8.71 13.191l5.268 5.268-5.658 5.658-5.658-5.658 5.658-5.658.195.195.195.195zm6.289 5.984c3.802 2.294 8.038 4.104 11.57 6.704.8 1.975-1.433 3.102-2.492 4.325-2.409 2.188-4.374 4.883-7.111 6.697-2.083.104-2.529-2.24-3.368-3.622-1.647-2.795-3.166-5.678-4.765-8.505l5.802-5.802.241.134.123.068z" fill="#fff" fill-opacity=".726"/><g fill="#fff" fill-opacity=".726"><path d="M2287.784 380.104c.576-3.252-1.012-6.371-3.052-8.792l-17.897-25.219c2.803-1.913 5.855-3.501 8.52-5.595 1.374-1.575 1.457-3.787 1.986-5.732.749-3.9-.078-7.899-1.353-11.609 4.561 6.348 8.981 12.814 13.627 19.091 1.501 1.417 4.103-.453 3.255-2.323-9.717-13.946-19.669-27.752-29.476-41.645-.828-1.235-1.914-3.346-3.759-2.607-1.68.601-1.622 2.9-.367 3.925l12.709 17.909c-3.744-3.021-8.259-5.309-13.105-5.382-1.881-.45-3.902.053-5.253 1.472l-6.319 4.969c-6.705-9.361-13.25-18.844-20.051-28.131-3.215-3.693-9.291-4.042-12.993-.887-2.774 2.198-6.107 3.843-8.487 6.437-2.906 3.43-2.74 8.833.196 12.197l19.533 27.526-40.167 31.585c-2.079-2.685-3.732-5.744-6.068-8.206-2.127-1.766-5.126-.861-6.949.884-2.749 1.314-3.755 5.17-1.64 7.489l9.073 12.786c-2.139 1.153-4.175 3.352-3.501 5.968.907 2.48 2.85 5.419 5.841 5.309 1.666.034 2.949-1.127 4.225-2.025 3.346 4.608 6.499 9.372 9.963 13.885 1.989 2.009 5.227 1.394 7.099-.443 2.544-1.213 3.938-4.578 2.256-7.032-1.74-2.474-3.499-4.935-5.248-7.404l43.074-27.488c6.967 9.731 13.777 19.584 20.84 29.242 3.213 3.683 9.293 4.056 12.994.887 2.736-2.167 5.963-3.766 8.378-6.312a9.435 9.435 0 0 0 2.116-4.725zm-1.117.045c-.414 2.968-2.686 5.219-5.174 6.662-2.919 1.736-5.341 4.623-8.804 5.271-3.546.693-7.213-1.264-8.939-4.376-6.648-9.294-13.173-18.709-19.896-27.929-1.21-.084-2.125 1.321-3.225 1.736l-21.305 13.595c-1.499-1.942-2.737-4.18-4.381-5.958-1.086-.119-.632 1.323-.019 1.655l3.473 4.894-3.711 2.367c-3.537-4.906-6.945-9.941-10.561-14.769-.918-.332-1.149 1.308-.514 1.656 3.286 4.63 6.571 9.261 9.858 13.89l-4.916 3.138c-1.153-1.376-1.944-3.198-3.283-4.348-1.063-.02-.514 1.334.039 1.673.558 1.104 2.145 2.409 2.113 3.397-2.558 1.632-5.115 3.265-7.673 4.896l-13.779-19.417c13.576-10.711 27.233-21.343 40.759-32.102.174-1.159-1.329-1.964-1.732-2.985-6.396-9.093-12.944-18.086-19.25-27.237-2.153-3.783-.644-8.988 3.115-11.14 2.862-1.808 5.36-4.244 8.44-5.683 3.776-1.559 8.386.205 10.357 3.741 6.448 9.005 12.762 18.145 19.293 27.067 1.16.088 1.888-1.415 2.884-1.878l3.684-2.897c5.01 6.985 9.894 14.092 14.981 21.001.958.344.979-1.094.259-1.424l-14.375-20.257c1.485-1.743 4.517-1.797 5.821.171 4.984 7.112 10.141 14.119 15.023 21.294.927 1.935-.314 4.245-2.225 5.001-2.453 1.655-5.115 3.093-7.451 4.871.007 1.212 1.428 2.055 1.906 3.136 6.096 8.676 12.358 17.247 18.358 25.986a8.317 8.317 0 0 1 .854 5.301zm5.223-39.286c-.197 1.064-1.744.94-2.015-.034-10.125-14.329-20.374-28.589-30.422-42.96-.38-1.136 1.427-1.743 1.855-.632 10.172 14.396 20.471 28.723 30.564 43.163.044.15.051.311.018.464zm-16.419-6.68l-14.807-20.865c6.769.984 12.836 5.871 14.927 12.428 1.047 3.033 1.137 6.318.608 9.463l-.728-1.026zm-70.258 64.822c-.367 2.177-2.667 3.136-4.298 4.242-1.955.939-4.199-.346-5.052-2.192-8.275-11.709-16.644-23.358-24.861-35.104-1.01-1.866.08-4.203 1.918-5.068 1.358-1.28 3.475-2.304 5.25-1.211 1.91 1.322 2.754 3.698 4.254 5.416 7.475 10.581 15.043 21.104 22.461 31.722.341.672.456 1.452.327 2.195zm-19.934-10.125c-1.366 1.353-3.647 2.165-5.339.907-1.215-1.093-2.371-2.519-2.679-4.161-.327-2.085 1.499-3.589 3.122-4.489l5.295 7.46-.199.141-.199.141z"/><path d="M2257.613 338.91c.83-4.716-3.207-9.476-8.017-9.426-4.07-.18-6.886 3.234-10.103 5.194-5.611 4.064-11.385 7.922-16.901 12.106-3.503 3.191-3.302 9.312.397 12.248 3.004 2.663 7.907 2.529 10.909-.14 7.027-5.043 14.165-9.941 21.126-15.069a8.216 8.216 0 0 0 2.591-4.912zm-1.116.027c-.367 2.769-2.637 4.71-4.903 6.049-6.652 4.666-13.209 9.479-19.915 14.06-3.541 2.015-8.513.238-9.971-3.569-1.426-3.231.013-7.278 3.065-9.008l17.957-12.743c1.719 2.291 3.231 4.803 5.066 6.971.937.236.881-1.121.206-1.44l-4.376-6.166c2.032-1.783 4.813-3.068 7.543-2.297 3.564.821 6.004 4.546 5.327 8.143zM2222.256 301.568c.602-3.511-3.823-6.275-6.72-4.219-3.123 1.76-2.439 6.964 1.007 7.885 2.534.882 5.472-.97 5.713-3.665zm-1.114.038c-.3 2.512-3.749 3.666-5.506 1.85-1.887-1.612-1.025-5.052 1.4-5.583 2.251-.659 4.554 1.421 4.106 3.733zM2277.959 380.062c.601-3.513-3.827-6.285-6.725-4.216-3.108 1.761-2.444 6.964 1.012 7.882 2.542.888 5.466-.977 5.713-3.666zm-1.114.039c-.301 2.513-3.75 3.664-5.507 1.848-1.934-1.65-.968-5.18 1.536-5.616 2.223-.551 4.407 1.514 3.971 3.768zM2179.688 364.793c.453-2.605-3.14-4.391-4.943-2.449-2.002 1.727-.363 5.39 2.267 5.031 1.36-.086 2.544-1.223 2.677-2.582zm-1.108-.011c-.223 1.827-3.091 2.012-3.547.228-.657-1.712 1.765-3.22 3.012-1.878.441.416.649 1.056.534 1.65zM2203.226 397.964c.455-2.605-3.138-4.391-4.939-2.453-2.064 1.767-.28 5.496 2.384 5.02 1.314-.141 2.425-1.249 2.556-2.568zm-1.108-.011c-.222 1.827-3.091 2.012-3.547.228-.659-1.716 1.777-3.226 3.02-1.872.436.416.64 1.052.527 1.644z"/></g><g fill="#fff" fill-opacity=".726"><path d="M2308.952 581.46c-1.974.092-.933 3.398.752 2.261.947-.699.496-2.361-.752-2.261z"/><path d="M2322.398 482.433c-3.537-.14-5.874 3.879-5.355 7.096l-7.51 81.438c-7.732-.647-14.412 7.996-11.65 15.299.128 2.303-2.607 2.94-4.148 3.954-1.614.713-3.47-.006-4.463-1.368-6.028-4.17-11.54-9.136-17.901-12.691-4.237-.738-6.706 3.612-9.509 5.943-14.454 13.789-29.257 27.25-43.441 41.301-2.16 3.651 1.973 9.087 6.086 7.209 3.829-1.482 7.013-4.215 10.746-5.915l63.568-36.218c3.606 6.987 14.712 7.951 19.319 1.503.945-.779 1.497-3.048 2.379-3.081 1.554 1.712 5.112 2.606 4.526 5.562-1.655 7.587-3.476 15.197-4.429 22.878.723 4.12 5.582 4.811 8.8 6.161 18.872 7.331 37.57 15.207 56.57 22.121 4.088.34 7.204-5.382 4.004-8.351-2.886-3.051-6.882-4.702-10.043-7.434l-59.609-42.158c1.983-6.674-3.298-14.141-10.193-14.708 1.56-2.101-.391-5.672 2.338-7.114 7.569-2.874 15.571-4.709 22.874-8.195 2.917-2.925.962-7.302.607-10.813-3.068-19.865-5.565-39.845-9.069-59.618-.843-1.666-2.633-2.771-4.498-2.799zm.53 1.097c3.211.418 3.847 4.206 3.928 6.847 2.941 20.753 6.409 41.452 8.998 62.244-.673 3.418-4.72 3.663-7.368 4.68-5.711 1.999-11.463 3.878-17.187 5.842 2.532-25.749 4.462-51.589 7.358-77.283.718-1.603 2.535-2.593 4.271-2.33zm-12.955 88.544c6.809.331 11.75 8.359 8.904 14.581-2.326 6.625-11.89 8.935-16.956 4.032-4.955-4.258-4.674-13.174.986-16.72 2.041-1.423 4.585-2.122 7.066-1.892zm-39.514 5.05c3.907.902 6.384 4.47 9.779 6.362l11.011 8.109c-22.54 12.685-44.838 25.838-67.521 38.241-3.538.958-6.498-4.241-3.757-6.737 16.234-15.17 32.139-30.744 48.63-45.629a3.96 3.96 0 0 1 1.858-.346zm56.649 14.626c20.755 14.845 41.844 29.261 62.387 44.376 2.389 2.872-1.294 7.78-4.711 6.172-20.573-8.326-41.444-16.03-61.83-24.747-2.481-2.319-.651-5.89-.29-8.571 1.189-5.95 2.379-11.899 3.567-17.849l.876.619z"/></g><g fill="#fff" fill-opacity=".726"><path d="M159.661 230.129c-.79.312.631 1.236.446.306-.054-.168-.245-.424-.446-.306z"/><path d="M169.707 111.232c-.468.879 1.066.903 1.518 1.102l18.895 6.239c-.764 2.972.917 6.314 3.76 7.47l-2.137 6.474c-3.559-1.032-7.35 1.722-7.939 5.292-2.108 6.154-3.461 13.127-8.498 17.696-6.189 6.052-16.002 7.799-23.973 4.513-3.593-1.03-7.049-2.967-10.849-3.014-2.237.267-4.222 1.826-5.117 3.88l-6.45-2.13c.761-2.97-.915-6.307-3.753-7.468 2.121-6.909 4.805-13.709 6.616-20.672-.976-.331-.928 1.32-1.208 1.872-1.855 5.964-3.957 11.868-5.867 17.802-.69 1.317-2.265.205-3.336.751-3.735.889-6.068 5.563-4.057 8.971.688 1.322 1.854 2.355 3.201 2.975-2.1 6.909-4.86 13.744-6.586 20.683 1.013.292.735-1.304 1.129-1.796l6.162-18.661c2.973.764 6.311-.92 7.47-3.76l6.458 2.132c-1.026 3.886 2.32 7.663 6.071 8.192 6.001 1.986 12.74 3.478 17.105 8.434 5.918 6.19 7.586 15.882 4.345 23.771-1.03 3.654-3.105 7.23-2.907 11.053.334 2.138 1.787 4.056 3.765 4.94l-2.127 6.44c-2.971-.764-6.305.917-7.466 3.755-6.91-2.116-13.73-4.819-20.673-6.612-.358 1.015 1.295.777 1.781 1.153 6.23 2.057 12.459 4.113 18.688 6.171-1.414 4.371 3.368 9.096 7.72 7.621 1.858-.515 3.398-1.935 4.18-3.684 6.912 2.1 13.742 4.86 20.683 6.586.293-1.013-1.303-.736-1.795-1.13-6.22-2.053-12.44-4.108-18.66-6.16.766-2.975-.92-6.311-3.762-7.471l2.139-6.474c3.553 1.022 7.354-1.721 7.94-5.293 2.09-6.079 3.411-12.956 8.323-17.525 6.176-6.178 16.096-8.002 24.14-4.682 3.618 1.026 7.096 2.999 10.924 3.005 2.211-.29 4.159-1.84 5.046-3.872l6.45 2.13c-.76 2.971.915 6.306 3.753 7.468-2.117 6.909-4.812 13.716-6.612 20.674 1.015.355.778-1.294 1.153-1.781l6.171-18.688c4.447 1.432 9.226-3.527 7.566-7.914-.556-1.778-1.945-3.224-3.627-3.99 2.099-6.908 4.86-13.744 6.585-20.681-1.012-.29-.734 1.303-1.129 1.794l-6.162 18.661c-2.973-.764-6.311.919-7.469 3.761l-6.458-2.132c.991-3.771-2.16-7.56-5.842-8.117-6.071-2.028-12.911-3.486-17.335-8.508-5.918-6.191-7.585-15.881-4.345-23.771 1.023-3.66 3.098-7.171 2.908-11.051-.334-2.139-1.789-4.056-3.766-4.944l2.127-6.439c2.971.764 6.306-.915 7.466-3.753 6.911 2.098 13.749 4.864 20.69 6.587.292-1.013-1.306-.735-1.797-1.129l-18.686-6.17c1.37-4.329-3.273-9.04-7.619-7.65-1.904.493-3.488 1.93-4.285 3.713-6.898-2.141-13.694-4.758-20.638-6.638zm-49.216 40.921c3.652-1.987 8.643 1.669 7.816 5.76-.417 3.828-5.448 6.139-8.571 3.798-3.222-2.053-3.16-7.595.346-9.337l.408-.221zm73.358-36.938c3.652-1.987 8.643 1.669 7.816 5.76-.417 3.828-5.448 6.139-8.571 3.798-3.222-2.053-3.16-7.595.346-9.337l.408-.221zm-6.21 18.443c2.967-1.584 7.2.263 7.743 3.646.638 3.314-1.381 6.323-2.2 9.416-2.026 5.459-3.201 11.541-1.272 17.2.344 1.141.79 2.248 1.261 3.341-3.353 1.955-7.217 3.252-10.309 5.482.617.919 1.568-.539 2.288-.596l8.384-4.222c3.171 6.348 9.546 10.47 16.304 12.192 3.089 1.173 6.853 1.462 9.213 4.019 2.096 2.588 1.237 7.029-1.931 8.339-3.349 1.446-6.727-.858-9.892-1.721-5.295-1.913-11.092-3.428-16.661-1.807-1.545.381-3.041.939-4.496 1.581-1.949-3.345-3.278-7.268-5.481-10.312-.921.614.539 1.568.595 2.288l4.222 8.385c-6.336 3.155-10.448 9.506-12.171 16.26-1.17 3.036-1.487 6.618-3.736 9.119-2.71 2.483-7.847 1.283-8.777-2.408-.99-3.328 1.134-6.476 1.963-9.589 2.005-5.405 3.321-11.41 1.51-17.065-.366-1.302-.85-2.537-1.391-3.783 3.345-1.956 7.217-3.242 10.307-5.484-.63-.908-1.584.527-2.286.598l-8.384 4.222c-3.168-6.354-9.568-10.479-16.304-12.192-3.09-1.176-6.864-1.462-9.22-4.027-2.105-2.605-1.21-7.073 1.998-8.345 3.182-1.405 6.408.792 9.417 1.614 5.3 1.87 11.118 3.544 16.641 2.033 1.688-.383 3.337-.978 4.932-1.688 1.956 3.35 3.25 7.221 5.482 10.308.925-.611-.542-1.564-.595-2.284l-4.221-8.383c6.16-3.11 10.325-9.211 12.012-15.815 1.202-3.102 1.583-6.662 3.67-9.348a5.278 5.278 0 0 1 1.387-.976zm-30.211 91.853c3.652-1.987 8.643 1.669 7.816 5.76-.417 3.828-5.448 6.139-8.571 3.798-3.222-2.053-3.16-7.595.346-9.337l.408-.221zm73.358-36.938c3.652-1.987 8.643 1.669 7.816 5.76-.417 3.828-5.448 6.139-8.571 3.798-3.222-2.053-3.16-7.595.346-9.337l.408-.221z"/><path d="M232.946 193.239c-.683.482.935 1.085.47.109a.311.311 0 0 0-.47-.109zM196.023 119.865c-.705.428.827 1.109.501.193-.086-.171-.32-.306-.501-.193zM122.65 156.819c-.684.524.971 1.058.456.087a.31.31 0 0 0-.456-.087z"/></g><ellipse cx="1263.82" cy="245.449" rx="424.27" ry="321.798" opacity=".375" fill="url(#b)"/></svg>