<svg xmlns="http://www.w3.org/2000/svg" width="280" height="50" viewBox="0 0 280 50"><g transform="matrix(.527 0 0 .527 -99.961 -26.544)" fill="#fff" fill-rule="evenodd"><path d="M193.246 54.373v49.831h9.994V82.667h1.126l16.219 26.289 2.393-16.188-8.899-15.028 17.314-23.649h-13.514l-13.091 20.833h-1.548V54.231zM222.044 113.543l7.66-50.02h10.698l8.587 27.59.99-.265 9.427-27.184h10.417l4.728 35.662-10.135 2.252-1.349-16.659-1.548.141-7.577 19.357-8.727 2.111-7.203-21.469-1.689.141-2.874 25.245zM300.499 88.719l1.692-11.049s-6.072-5.674-14.731-4.579c-4.33.547-7.952 2.765-10.115 4.831-1.655 1.58-2.824 4.028-2.824 4.028l1.874 17.015 1.243-.211s-.871-8.907 6.168-12.417c6.208-3.097 10.767-1.028 12.649.191 2.204 1.427 3.24 2.793 3.24 2.793zM271.335 115.879l9.345-5.999s1.022 2.474 4.561 4.046c2.768 1.23 6.057 1.171 8.729.035 1.431-.608 2.776-1.486 2.776-1.486l-1.622 12.628s-5.809 1.475-11.371.037c-3.146-.813-6.682-2.64-9.275-5.338-1.969-2.048-3.143-3.923-3.143-3.923zM282.591 99.416s-71.575 19.065-74.959 23.245c-3.384 4.181-2.843 8.851-1.506 13.004 1.337 4.153 4.716 7.32 9.572 5.701 4.856-1.619 26.223-12.947 43.426-22.171 10.641-5.705 25.479-14.886 25.479-14.886z"/><ellipse ry="8.859" rx="8.461" cy="98.773" cx="290.645"/><path d="M296.444 93.331s60.118-33.937 68.816-33.986c5.379-.031 8.45 6.359 9.053 10.68 1.398 10.018-8.116 11.567-12.917 13.345-5.448 2.018-30.838 7.796-35.135 8.784-5.829 1.341-27.859 5.816-27.859 5.816z"/></g><g font-size="25" font-family="Conto-Thin" text-anchor="middle" style="line-height:125%" letter-spacing="0" word-spacing="0" fill="#fff"><path style="-inkscape-font-specification:Conto-Thin;text-align:center" d="M106.612 29.204V2.911h-1.294v26.293h1.294zm12.944-26.293l-11.731 12.701 11.852 13.591h1.658l-11.852-13.591 11.731-12.701h-1.658zM126.096 2.911v26.293h14.036v-1.092H127.39V15.937h10.234v-1.092H127.39V4.004h12.742V2.912h-14.036zM146.005 2.911v26.293h1.294V3.68c1.942 4.773 3.641 9.02 5.178 12.742.647 1.618 1.254 3.155 1.901 4.692.607 1.537 1.173 2.912 1.658 4.126.485 1.214.849 2.144 1.173 2.872l.485 1.092h1.133l9.546-25.524v25.524h1.294V2.911h-2.306L158.3 27.383l-9.991-24.472h-2.306zM184.003 17.675h-5.339V4.003h5.339c1.335 0 2.508.121 3.479.324.971.202 1.82.566 2.467 1.052.647.526 1.133 1.214 1.456 2.022.324.849.485 1.901.485 3.115 0 2.589-.647 4.45-1.942 5.542-1.294 1.092-3.276 1.618-5.946 1.618zm-6.634-14.764v26.293h1.294V18.768h5.906c2.912 0 5.097-.688 6.512-2.103 1.375-1.375 2.103-3.438 2.103-6.148 0-2.71-.728-4.652-2.103-5.825-1.416-1.173-3.6-1.78-6.512-1.78h-7.2zM198.859 2.911v26.293h14.036v-1.092h-12.742V15.937h10.234v-1.092h-10.234V4.004h12.742V2.912h-14.036zM233.411 29.204h2.225V2.911h-1.294v25.524L220.993 2.911h-2.225v26.293h1.294V3.68l13.349 25.524zM248.516 29.689c2.751 0 4.733-.607 6.027-1.861 1.294-1.254 1.942-2.953 1.942-5.137 0-1.578-.364-2.832-1.011-3.762-.647-.89-1.497-1.618-2.467-2.184-.971-.566-2.063-1.011-3.196-1.375a21.625 21.625 0 0 1-3.236-1.294c-.971-.485-1.82-1.092-2.467-1.861-.647-.769-.971-1.861-.971-3.236 0-1.618.485-2.953 1.537-3.964 1.052-.971 2.67-1.497 4.894-1.497 1.214 0 2.225.162 3.034.405.809.283 1.578.566 2.265.849l.405-.971c-.647-.324-1.456-.607-2.346-.93-.93-.283-2.022-.445-3.276-.445-2.629 0-4.571.607-5.865 1.82-1.294 1.214-1.942 2.872-1.942 4.894 0 1.537.324 2.71.971 3.6.647.89 1.497 1.578 2.467 2.103a13.633 13.633 0 0 0 3.236 1.335c1.133.364 2.225.809 3.196 1.294.971.485 1.82 1.133 2.467 1.942.647.809 1.011 1.861 1.011 3.236 0 1.942-.526 3.438-1.578 4.45-1.052 1.011-2.751 1.497-5.178 1.497-1.133 0-2.225-.121-3.357-.445-1.133-.283-2.144-.647-2.993-1.092l-.485.971c.89.485 1.942.89 3.115 1.214 1.133.324 2.427.445 3.802.445zM262.22 2.911v26.293h14.036v-1.092h-12.742V15.937h10.234v-1.092h-10.234V4.004h12.742V2.912H262.22zM104.768 32.781V48.53h.775V33.241c1.163 2.859 2.181 5.403 3.101 7.632.388.969.751 1.89 1.139 2.811.363.921.703 1.745.993 2.471.291.727.509 1.284.703 1.72l.291.654h.678l5.718-15.289v15.289h.775V32.78h-1.381l-5.427 14.659-5.985-14.659h-1.381zM128.838 48.167c-1.841 0-3.174-.606-4.022-1.841-.872-1.211-1.284-3.126-1.284-5.718 0-2.568.412-4.458 1.284-5.67.848-1.187 2.181-1.793 4.022-1.793 1.817 0 3.15.606 4.022 1.793.872 1.211 1.308 3.101 1.308 5.67 0 2.593-.436 4.507-1.308 5.718-.872 1.236-2.205 1.841-4.022 1.841zm0 .654c2.06 0 3.586-.654 4.604-2.011.993-1.333 1.502-3.392 1.502-6.203 0-2.762-.509-4.822-1.526-6.13-1.018-1.308-2.544-1.987-4.579-1.987-2.084 0-3.61.678-4.604 1.987-.993 1.308-1.478 3.368-1.478 6.13 0 2.811.485 4.87 1.478 6.203.993 1.357 2.52 2.011 4.604 2.011zM138.746 32.781V48.53h4.119c1.163 0 2.181-.121 3.053-.388.872-.242 1.623-.678 2.205-1.308.582-.63 1.018-1.43 1.308-2.447.291-1.018.436-2.278.436-3.78 0-1.502-.145-2.738-.436-3.756-.291-.993-.727-1.793-1.308-2.399-.582-.606-1.333-1.042-2.205-1.284-.872-.242-1.89-.388-3.053-.388h-4.119zm.775 15.095V33.435h3.344c1.018 0 1.938.121 2.714.339a4.62 4.62 0 0 1 1.938 1.163c.533.557.921 1.284 1.187 2.205.242.921.388 2.084.388 3.465 0 1.405-.145 2.568-.388 3.489-.267.921-.654 1.672-1.187 2.229-.533.582-1.163.969-1.938 1.211-.775.242-1.696.339-2.714.339h-3.344zM153.653 32.781V48.53h8.408v-.654h-7.632v-7.293h6.13v-.654h-6.13v-6.494h7.632v-.654h-8.408zM166.354 32.781h-.775V48.53h8.117v-.654h-7.342V32.781zM184.937 48.264l-.194-.582a8.37 8.37 0 0 1-1.26.339 9.755 9.755 0 0 1-1.793.145c-1.066 0-1.963-.121-2.69-.412a4.26 4.26 0 0 1-1.841-1.333c-.485-.606-.848-1.381-1.066-2.35-.242-.945-.339-2.108-.339-3.465 0-1.357.097-2.496.339-3.441.218-.945.582-1.72 1.066-2.302A4.408 4.408 0 0 1 179 33.555c.727-.267 1.623-.412 2.69-.412.557 0 1.09.073 1.623.17.509.121.945.242 1.333.363l.218-.582c-.388-.145-.872-.291-1.454-.412s-1.163-.194-1.72-.194c-1.211 0-2.229.17-3.077.46a4.54 4.54 0 0 0-2.084 1.43c-.533.654-.945 1.502-1.187 2.52-.242 1.018-.363 2.253-.363 3.707 0 1.454.121 2.714.363 3.731.242 1.042.654 1.89 1.211 2.544.533.678 1.236 1.163 2.108 1.478.848.315 1.866.46 3.077.46.242 0 .509 0 .8-.024.291-.024.582-.073.872-.121.291-.048.557-.097.824-.17a3.96 3.96 0 0 0 .703-.242zM188.928 32.781h-.775V48.53h8.117v-.654h-7.342V32.781zM198.513 32.781v10.685c0 1.89.412 3.271 1.236 4.095.824.848 2.156 1.26 3.998 1.26 1.841 0 3.174-.436 3.998-1.308.824-.872 1.236-2.253 1.236-4.143V32.782h-.775v10.225c0 .945-.097 1.745-.242 2.399-.17.654-.436 1.187-.775 1.599-.363.412-.824.703-1.381.897-.582.194-1.26.267-2.06.267-.824 0-1.502-.073-2.06-.267-.582-.194-1.042-.485-1.381-.897-.363-.388-.63-.921-.775-1.575-.17-.654-.242-1.454-.242-2.423V32.782h-.775zM217.227 47.876h-3.029V40.51h3.053c1.551 0 2.738.291 3.61.872.848.582 1.284 1.502 1.284 2.811 0 .678-.097 1.236-.267 1.696-.17.485-.436.848-.824 1.139-.388.291-.897.509-1.526.654-.63.145-1.405.194-2.302.194zm-3.029-8.02v-6.421h2.375c.921 0 1.696.073 2.326.17.63.121 1.139.291 1.526.533.388.242.654.557.824.945.145.388.242.848.242 1.381 0 1.163-.388 2.011-1.139 2.568-.751.557-1.987.824-3.731.824h-2.423zm-.775-7.075V48.53h4.143c1.841 0 3.198-.339 4.071-1.042.848-.678 1.284-1.793 1.284-3.295 0-1.26-.339-2.229-1.018-2.883-.678-.63-1.599-1.042-2.762-1.236 1.066-.17 1.866-.533 2.375-1.115.485-.582.751-1.405.751-2.496 0-1.308-.436-2.229-1.26-2.811-.824-.582-2.181-.872-4.046-.872h-3.538zM230.188 32.781l5.137 15.749h1.211l5.137-15.749h-.848l-4.894 15.289-4.894-15.289h-.848zM252.941 32.781h-9.232v.654h8.529L243.321 47.9l.194.63h9.498v-.654h-8.795l8.917-14.465-.194-.63zM264.969 33.241l4.24 15.289h1.211l4.507-15.749h-.848l-4.264 15.289-4.24-15.289h-1.211L260.1 48.07l-4.24-15.289h-.848l4.483 15.749h1.211l4.264-15.289z"/></g></svg>