<svg xmlns="http://www.w3.org/2000/svg" xmlns:xlink="http://www.w3.org/1999/xlink" width="600" height="320" viewBox="0 0 600 320"><defs><linearGradient id="a"><stop stop-opacity=".244" stop-color="#1f1f1f" offset="0"/><stop stop-opacity="0" stop-color="#4e4e4e" offset="1"/></linearGradient><linearGradient xlink:href="#a" id="b" x1="230.906" y1="111.931" x2="309.752" y2="319.523" gradientUnits="userSpaceOnUse" gradientTransform="matrix(.804 0 0 .804 91.833 13.574)"/></defs><path d="M192.564 134.663l40.425 175.174 318.345-108.641L441.85 31.075z" opacity=".718" fill="url(#b)" fill-rule="evenodd"/><g transform="translate(-114.56 -64.751) scale(1.496)" fill-opacity=".183" fill-rule="evenodd"><path d="M193.246 54.373v49.831h9.994V82.667h1.126l16.219 26.289 2.393-16.188-8.899-15.028 17.314-23.649h-13.514l-13.091 20.833h-1.548V54.231zM222.044 113.543l7.66-50.02h10.698l8.587 27.59.99-.265 9.427-27.184h10.417l4.728 35.662-10.135 2.252-1.349-16.659-1.548.141-7.577 19.357-8.727 2.111-7.203-21.469-1.689.141-2.874 25.245zM300.499 88.719l1.692-11.049s-6.072-5.674-14.731-4.579c-4.33.547-7.952 2.765-10.115 4.831-1.655 1.58-2.824 4.028-2.824 4.028l1.874 17.015 1.243-.211s-.871-8.907 6.168-12.417c6.208-3.097 10.767-1.028 12.649.191 2.204 1.427 3.24 2.793 3.24 2.793zM271.335 115.879l9.345-5.999s1.022 2.474 4.561 4.046c2.768 1.23 6.057 1.171 8.729.035 1.431-.608 2.776-1.486 2.776-1.486l-1.622 12.628s-5.809 1.475-11.371.037c-3.146-.813-6.682-2.64-9.275-5.338-1.969-2.048-3.143-3.923-3.143-3.923zM282.591 99.416s-71.575 19.065-74.959 23.245c-3.384 4.181-2.843 8.851-1.506 13.004 1.337 4.153 4.716 7.32 9.572 5.701 4.856-1.619 26.223-12.947 43.426-22.171 10.641-5.705 25.479-14.886 25.479-14.886z"/><ellipse ry="8.859" rx="8.461" cy="98.773" cx="290.645"/><path d="M296.444 93.331s60.118-33.937 68.816-33.986c5.379-.031 8.45 6.359 9.053 10.68 1.398 10.018-8.116 11.567-12.917 13.345-5.448 2.018-30.838 7.796-35.135 8.784-5.829 1.341-27.859 5.816-27.859 5.816z"/></g><g word-spacing="0" letter-spacing="0" style="line-height:125%" font-size="25" font-family="Conto-Thin" text-anchor="middle" fill="#fff"><path style="-inkscape-font-specification:Conto-Thin;text-align:center" d="M4.386 217.285v-33.377H2.743v33.377h1.643zm16.432-33.377L5.927 200.032l15.046 17.254h2.105L8.032 200.032l14.891-16.124h-2.105zM29.12 183.908v33.377h17.818v-1.386H30.763v-15.456h12.992v-1.386H30.763v-13.762h16.175v-1.386H29.12zM54.393 183.908v33.377h1.643v-32.402c2.465 6.059 4.621 11.451 6.573 16.175.822 2.054 1.592 4.005 2.413 5.957.77 1.951 1.489 3.697 2.105 5.238.616 1.54 1.078 2.722 1.489 3.646l.616 1.386h1.438l12.119-32.402v32.402h1.643v-33.377h-2.927l-11.502 31.067-12.683-31.067h-2.927zM102.631 202.651h-6.778v-17.356h6.778c1.695 0 3.184.154 4.416.411 1.232.257 2.311.719 3.132 1.335.822.668 1.438 1.54 1.849 2.567.411 1.078.616 2.413.616 3.954 0 3.286-.822 5.648-2.465 7.035-1.643 1.386-4.159 2.054-7.548 2.054zm-8.421-18.743v33.377h1.643v-13.248h7.497c3.697 0 6.47-.873 8.267-2.67 1.746-1.746 2.67-4.365 2.67-7.805 0-3.44-.924-5.905-2.67-7.394-1.797-1.489-4.57-2.259-8.267-2.259h-9.14zM121.489 183.908v33.377h17.818v-1.386h-16.175v-15.456h12.992v-1.386h-12.992v-13.762h16.175v-1.386h-17.818zM165.352 217.285h2.824v-33.377h-1.643v32.402l-16.945-32.402h-2.824v33.377h1.643v-32.402l16.945 32.402zM184.527 217.902c3.492 0 6.008-.77 7.651-2.362 1.643-1.592 2.465-3.749 2.465-6.521 0-2.003-.462-3.594-1.284-4.776-.822-1.13-1.9-2.054-3.132-2.773-1.232-.719-2.619-1.284-4.057-1.746a27.386 27.386 0 0 1-4.108-1.643c-1.232-.616-2.311-1.386-3.132-2.362-.822-.976-1.232-2.362-1.232-4.108 0-2.054.616-3.749 1.951-5.032 1.335-1.232 3.389-1.9 6.213-1.9 1.54 0 2.824.205 3.851.513 1.027.359 2.003.719 2.876 1.078l.513-1.232c-.822-.411-1.849-.77-2.978-1.181-1.181-.359-2.567-.565-4.159-.565-3.338 0-5.803.77-7.446 2.311-1.643 1.54-2.465 3.646-2.465 6.213 0 1.951.411 3.44 1.232 4.57.822 1.13 1.9 2.003 3.132 2.67 1.232.719 2.619 1.284 4.108 1.695a29.096 29.096 0 0 1 4.057 1.643c1.232.616 2.311 1.438 3.132 2.465.822 1.027 1.284 2.362 1.284 4.108 0 2.465-.668 4.365-2.003 5.648-1.335 1.284-3.492 1.9-6.573 1.9-1.438 0-2.824-.154-4.262-.565-1.438-.359-2.722-.822-3.8-1.386l-.616 1.232c1.13.616 2.465 1.13 3.954 1.54 1.438.411 3.081.565 4.827.565zM201.924 183.908v33.377h17.818v-1.386h-16.175v-15.456h12.992v-1.386h-12.992v-13.762h16.175v-1.386h-17.818zM239.133 183.908v33.377h1.643v-32.402c2.465 6.059 4.621 11.451 6.573 16.175.822 2.054 1.592 4.005 2.413 5.957.77 1.951 1.489 3.697 2.105 5.238.616 1.54 1.078 2.722 1.489 3.646l.616 1.386h1.438l12.119-32.402v32.402h1.643v-33.377h-2.927l-11.502 31.067-12.683-31.067h-2.927zM290.144 216.515c-3.903 0-6.727-1.284-8.524-3.903-1.849-2.567-2.722-6.624-2.722-12.119 0-5.443.873-9.448 2.722-12.016 1.797-2.516 4.621-3.8 8.524-3.8 3.851 0 6.675 1.284 8.524 3.8 1.849 2.567 2.773 6.573 2.773 12.016 0 5.494-.924 9.551-2.773 12.119-1.849 2.619-4.673 3.903-8.524 3.903zm0 1.386c4.365 0 7.6-1.386 9.756-4.262 2.105-2.824 3.184-7.189 3.184-13.146 0-5.854-1.078-10.219-3.235-12.992-2.157-2.773-5.392-4.211-9.705-4.211-4.416 0-7.651 1.438-9.756 4.211-2.105 2.773-3.132 7.138-3.132 12.992 0 5.957 1.027 10.321 3.132 13.146 2.105 2.876 5.34 4.262 9.756 4.262zM311.143 183.908v33.377h8.729c2.465 0 4.621-.257 6.47-.822 1.849-.513 3.44-1.438 4.673-2.773 1.232-1.335 2.157-3.03 2.773-5.186.616-2.157.924-4.827.924-8.011 0-3.184-.308-5.803-.924-7.959-.616-2.105-1.54-3.8-2.773-5.084-1.232-1.284-2.824-2.208-4.673-2.722-1.849-.513-4.005-.822-6.47-.822h-8.729zm1.643 31.991v-30.605h7.086c2.157 0 4.108.257 5.751.719 1.643.513 2.978 1.335 4.108 2.465 1.13 1.181 1.951 2.722 2.516 4.673.513 1.951.822 4.416.822 7.343 0 2.978-.308 5.443-.822 7.394-.565 1.951-1.386 3.543-2.516 4.724-1.13 1.232-2.465 2.054-4.108 2.567-1.643.513-3.594.719-5.751.719h-7.086zM342.736 183.908v33.377h17.818v-1.386h-16.175v-15.456h12.992v-1.386h-12.992v-13.762h16.175v-1.386h-17.818zM369.653 183.908h-1.643v33.377h17.202v-1.386h-15.559v-31.991zM409.034 216.721l-.411-1.232c-.719.257-1.592.513-2.67.719-1.078.205-2.362.308-3.8.308-2.259 0-4.159-.257-5.7-.873-1.592-.616-2.876-1.54-3.903-2.824-1.027-1.284-1.797-2.927-2.259-4.981-.513-2.003-.719-4.467-.719-7.343 0-2.876.205-5.289.719-7.292.462-2.003 1.232-3.646 2.259-4.878 1.027-1.232 2.311-2.157 3.903-2.773 1.54-.565 3.44-.873 5.7-.873 1.181 0 2.311.154 3.44.359 1.078.257 2.003.513 2.824.77l.462-1.232c-.822-.308-1.849-.616-3.081-.873s-2.465-.411-3.646-.411c-2.567 0-4.724.359-6.521.976-1.797.616-3.286 1.643-4.416 3.03-1.13 1.386-2.003 3.184-2.516 5.34-.513 2.157-.77 4.776-.77 7.857 0 3.081.257 5.751.77 7.908.513 2.208 1.386 4.005 2.567 5.392 1.13 1.438 2.619 2.465 4.467 3.132 1.797.668 3.954.976 6.521.976.513 0 1.078 0 1.695-.051.616-.051 1.232-.154 1.849-.257.616-.103 1.181-.205 1.746-.359s1.078-.308 1.489-.513zM417.492 183.908h-1.643v33.377h17.202v-1.386h-15.559v-31.991zM437.806 183.908v22.645c0 4.005.873 6.932 2.619 8.678 1.746 1.797 4.57 2.67 8.473 2.67 3.903 0 6.727-.924 8.473-2.773 1.746-1.849 2.619-4.776 2.619-8.781v-22.44h-1.643v21.67c0 2.003-.205 3.697-.513 5.084-.359 1.386-.924 2.516-1.643 3.389-.77.873-1.746 1.489-2.927 1.9-1.232.411-2.67.565-4.365.565-1.746 0-3.184-.154-4.365-.565-1.232-.411-2.208-1.027-2.927-1.9-.77-.822-1.335-1.951-1.643-3.338-.359-1.386-.513-3.081-.513-5.135v-21.67h-1.643zM477.468 215.899h-6.419v-15.61h6.47c3.286 0 5.803.616 7.651 1.849 1.797 1.232 2.722 3.184 2.722 5.957 0 1.438-.205 2.619-.565 3.594-.359 1.027-.924 1.797-1.746 2.413-.822.616-1.9 1.078-3.235 1.386-1.335.308-2.978.411-4.878.411zm-6.419-16.997v-13.608h5.032c1.951 0 3.594.154 4.93.359 1.335.257 2.413.616 3.235 1.13a4.37 4.37 0 0 1 1.746 2.003 8.29 8.29 0 0 1 .513 2.927c0 2.465-.822 4.262-2.413 5.443-1.592 1.181-4.211 1.746-7.908 1.746h-5.135zm-1.643-14.994v33.377h8.781c3.903 0 6.778-.719 8.627-2.208 1.797-1.438 2.722-3.8 2.722-6.984 0-2.67-.719-4.724-2.157-6.111-1.438-1.335-3.389-2.208-5.854-2.619 2.259-.359 3.954-1.13 5.032-2.362 1.027-1.232 1.592-2.978 1.592-5.289 0-2.773-.924-4.724-2.67-5.957-1.746-1.232-4.621-1.849-8.575-1.849h-7.497zM504.935 183.908l10.886 33.377h2.567l10.886-33.377h-1.797l-10.373 32.402-10.373-32.402h-1.797zM553.156 183.908h-19.564v1.386h18.075L532.77 215.95l.411 1.335h20.129v-1.386h-18.64l18.897-30.656-.411-1.335zM578.647 184.884l8.986 32.402h2.567l9.551-33.377h-1.797l-9.038 32.402-8.986-32.402h-2.567l-9.038 32.402-8.986-32.402h-1.797l9.5 33.377h2.567l9.038-32.402z"/></g><g transform="translate(-114.952 -65.681) scale(1.496)" fill="#fff" fill-rule="evenodd"><path d="M193.246 54.373v49.831h9.994V82.667h1.126l16.219 26.289 2.393-16.188-8.899-15.028 17.314-23.649h-13.514l-13.091 20.833h-1.548V54.231zM222.044 113.543l7.66-50.02h10.698l8.587 27.59.99-.265 9.427-27.184h10.417l4.728 35.662-10.135 2.252-1.349-16.659-1.548.141-7.577 19.357-8.727 2.111-7.203-21.469-1.689.141-2.874 25.245zM300.499 88.719l1.692-11.049s-6.072-5.674-14.731-4.579c-4.33.547-7.952 2.765-10.115 4.831-1.655 1.58-2.824 4.028-2.824 4.028l1.874 17.015 1.243-.211s-.871-8.907 6.168-12.417c6.208-3.097 10.767-1.028 12.649.191 2.204 1.427 3.24 2.793 3.24 2.793zM271.335 115.879l9.345-5.999s1.022 2.474 4.561 4.046c2.768 1.23 6.057 1.171 8.729.035 1.431-.608 2.776-1.486 2.776-1.486l-1.622 12.628s-5.809 1.475-11.371.037c-3.146-.813-6.682-2.64-9.275-5.338-1.969-2.048-3.143-3.923-3.143-3.923zM282.591 99.416s-71.575 19.065-74.959 23.245c-3.384 4.181-2.843 8.851-1.506 13.004 1.337 4.153 4.716 7.32 9.572 5.701 4.856-1.619 26.223-12.947 43.426-22.171 10.641-5.705 25.479-14.886 25.479-14.886z"/><ellipse ry="8.859" rx="8.461" cy="98.773" cx="290.645"/><path d="M296.444 93.331s60.118-33.937 68.816-33.986c5.379-.031 8.45 6.359 9.053 10.68 1.398 10.018-8.116 11.567-12.917 13.345-5.448 2.018-30.838 7.796-35.135 8.784-5.829 1.341-27.859 5.816-27.859 5.816z"/></g></svg>